<svg width="128" height="128" viewBox="0 0 128 128" fill="none" xmlns="http://www.w3.org/2000/svg">
<g clip-path="url(#clip0_1610_29018)">
<path d="M64 0C28.6544 0 0 28.6544 0 64C0 99.3456 28.6544 128 64 128C99.3456 128 128 99.3456 128 64C128 28.6544 99.3486 0 64 0ZM106 83C106 85.2091 104.209 87 102 87H68H60H26C23.7909 87 22 85.2091 22 83V63C22 50.472 32.472 41 45 41C53.0041 41 59.961 44.7404 64 51C68.039 44.7404 74.9959 41 83 41C95.528 41 106 50.472 106 63V83Z" fill="#0E85FF"/>
<path d="M56 59C59.3145 59 62 61.5056 62 65V74C62 77.4944 59.3145 80 56 80C52.6855 80 50 77.4944 50 74V65C50 61.5056 52.6855 59 56 59ZM57 72C57 73.1567 57.9028 74 59 74C60.0972 74 61 73.1567 61 72V67C61 65.8433 60.0972 65 59 65C57.9028 65 57 65.8433 57 67V72Z" fill="black"/>
<path d="M88 59C91.3145 59 94 61.5056 94 65V74C94 77.4944 91.3145 80 88 80C84.6855 80 82 77.4944 82 74V65C82 61.5056 84.6855 59 88 59ZM89 72C89 73.1567 89.9028 74 91 74C92.0972 74 93 73.1567 93 72V67C93 65.8433 92.0972 65 91 65C89.9028 65 89 65.8433 89 67V72Z" fill="black"/>
</g>
<defs>
<clipPath id="clip0_1610_29018">
<rect width="128" height="128" fill="white"/>
</clipPath>
</defs>
</svg>
