<svg width="128" height="128" viewBox="0 0 128 128" fill="none" xmlns="http://www.w3.org/2000/svg">
<g clip-path="url(#clip0_1610_29030)">
<path d="M64 0.000668274C44.9225 0.000668274 0 0.000668274 0 0.000668274C0 0.000668274 0 47.7326 0 64.0007C0 83.2746 0 128.001 0 128.001C0 128.001 47.9283 128.001 64 128.001C83.1294 128.001 128 128.001 128 128.001C128 128.001 128 80.2169 128 64.0007C128.063 50.824 128 7.9304e-05 128 7.9304e-05C128 7.9304e-05 86.2946 -0.0542454 64 0.000668274ZM106 83.0007C106 85.2098 104.209 87.0007 102 87.0007H68H60H26C23.7909 87.0007 22 85.2098 22 83.0007V63.0007C22 50.4727 32.472 41.0007 45 41.0007C53.0041 41.0007 59.961 44.7411 64 51.0007C68.039 44.7411 74.9959 41.0007 83 41.0007C95.528 41.0007 106 50.4727 106 63.0007V83.0007Z" fill="#0E85FF"/>
<path d="M56 59C59.3145 59 62 61.5056 62 65V74C62 77.4944 59.3145 80 56 80C52.6855 80 50 77.4944 50 74V65C50 61.5056 52.6855 59 56 59ZM57 72C57 73.1567 57.9028 74 59 74C60.0972 74 61 73.1567 61 72V67C61 65.8433 60.0972 65 59 65C57.9028 65 57 65.8433 57 67V72Z" fill="black"/>
<path d="M88 59C91.3145 59 94 61.5056 94 65V74C94 77.4944 91.3145 80 88 80C84.6855 80 82 77.4944 82 74V65C82 61.5056 84.6855 59 88 59ZM89 72C89 73.1567 89.9028 74 91 74C92.0972 74 93 73.1567 93 72V67C93 65.8433 92.0972 65 91 65C89.9028 65 89 65.8433 89 67V72Z" fill="black"/>
</g>
<defs>
<clipPath id="clip0_1610_29030">
<rect width="128" height="128" fill="white"/>
</clipPath>
</defs>
</svg>
