<?xml version="1.0" encoding="UTF-8"?>
<svg id="_图层_4" data-name="图层 4" xmlns="http://www.w3.org/2000/svg" xmlns:xlink="http://www.w3.org/1999/xlink" viewBox="0 0 6081.07 2297.21">
  <defs>
    <style>
      .cls-1 {
        fill: url(#_未命名的渐变_10);
      }

      .cls-1, .cls-2, .cls-3, .cls-4, .cls-5 {
        stroke-width: 0px;
      }

      .cls-6 {
        clip-path: url(#clippath);
      }

      .cls-2 {
        fill: none;
      }

      .cls-7 {
        clip-path: url(#clippath-1);
      }

      .cls-8 {
        clip-path: url(#clippath-3);
      }

      .cls-9 {
        clip-path: url(#clippath-2);
      }

      .cls-4 {
        fill: #0c82ff;
      }

      .cls-5 {
        fill: #fff;
      }
    </style>
    <clipPath id="clippath">
      <path id="line" class="cls-2" d="M1319.94,713.28h0c0,78.16-43.92,149.69-113.63,185.04l-202.1,102.5c-16.81,8.53-31.07,21.36-41.32,37.18v.02c-6.82,10.51-11.72,22.13-14.5,34.34h0c-.82,3.62-6.15,3.02-6.15-.69v-205.4c0-78.16,43.92-149.68,113.63-185.04l115.9-58.79c14.3-7.25,30.11-11.03,46.15-11.03h.16c56.26,0,101.86,45.6,101.86,101.86ZM1907.47,895.81l-104.69-78.78c-70.26-52.87-164.47-61.17-242.89-21.39l-509.71,258.52c-68.48,34.73-76.81,129.24-15.45,175.41l104.69,78.78c70.26,52.87,164.47,61.17,242.89,21.39l509.71-258.52c68.48-34.73,76.81-129.24,15.45-175.41ZM2017.12,1035.43h0c-2.4,16.39-8.37,32.05-17.49,45.88h0c-10.82,16.41-25.73,29.72-43.27,38.61l-293.09,148.65c-69.71,35.35-113.63,106.88-113.63,185.04v133.23c0,49.66,40.26,89.92,89.92,89.92h0c14.13,0,28.07-3.33,40.68-9.73l229.84-116.57c69.7-35.35,113.63-106.88,113.63-185.04v-329.52c0-4.1-5.99-4.54-6.58-.48Z"/>
    </clipPath>
    <clipPath id="clippath-1">
      <path id="line-2" data-name="line" class="cls-2" d="M1319.94,713.28h0c0,78.16-43.92,149.69-113.63,185.04l-202.1,102.5c-16.81,8.53-31.07,21.36-41.32,37.18v.02c-6.82,10.51-11.72,22.13-14.5,34.34h0c-.82,3.62-6.15,3.02-6.15-.69v-205.4c0-78.16,43.92-149.68,113.63-185.04l115.9-58.79c14.3-7.25,30.11-11.03,46.15-11.03h.16c56.26,0,101.86,45.6,101.86,101.86ZM1907.47,895.81l-104.69-78.78c-70.26-52.87-164.47-61.17-242.89-21.39l-509.71,258.52c-68.48,34.73-76.81,129.24-15.45,175.41l104.69,78.78c70.26,52.87,164.47,61.17,242.89,21.39l509.71-258.52c68.48-34.73,76.81-129.24,15.45-175.41ZM2017.12,1035.43h0c-2.4,16.39-8.37,32.05-17.49,45.88h0c-10.82,16.41-25.73,29.72-43.27,38.61l-293.09,148.65c-69.71,35.35-113.63,106.88-113.63,185.04v133.23c0,49.66,40.26,89.92,89.92,89.92h0c14.13,0,28.07-3.33,40.68-9.73l229.84-116.57c69.7-35.35,113.63-106.88,113.63-185.04v-329.52c0-4.1-5.99-4.54-6.58-.48Z"/>
    </clipPath>
    <clipPath id="clippath-2">
      <path id="line-3" data-name="line" class="cls-2" d="M1319.94,713.28h0c0,78.16-43.92,149.69-113.63,185.04l-202.1,102.5c-16.81,8.53-31.07,21.36-41.32,37.18v.02c-6.82,10.51-11.72,22.13-14.5,34.34h0c-.82,3.62-6.15,3.02-6.15-.69v-205.4c0-78.16,43.92-149.68,113.63-185.04l115.9-58.79c14.3-7.25,30.11-11.03,46.15-11.03h.16c56.26,0,101.86,45.6,101.86,101.86ZM1907.47,895.81l-104.69-78.78c-70.26-52.87-164.47-61.17-242.89-21.39l-509.71,258.52c-68.48,34.73-76.81,129.24-15.45,175.41l104.69,78.78c70.26,52.87,164.47,61.17,242.89,21.39l509.71-258.52c68.48-34.73,76.81-129.24,15.45-175.41ZM2017.12,1035.43h0c-2.4,16.39-8.37,32.05-17.49,45.88h0c-10.82,16.41-25.73,29.72-43.27,38.61l-293.09,148.65c-69.71,35.35-113.63,106.88-113.63,185.04v133.23c0,49.66,40.26,89.92,89.92,89.92h0c14.13,0,28.07-3.33,40.68-9.73l229.84-116.57c69.7-35.35,113.63-106.88,113.63-185.04v-329.52c0-4.1-5.99-4.54-6.58-.48Z"/>
    </clipPath>
    <clipPath id="clippath-3">
      <path id="line-4" data-name="line" class="cls-2" d="M1319.94,713.28h0c0,78.16-43.92,149.69-113.63,185.04l-202.1,102.5c-16.81,8.53-31.07,21.36-41.32,37.18v.02c-6.82,10.51-11.72,22.13-14.5,34.34h0c-.82,3.62-6.15,3.02-6.15-.69v-205.4c0-78.16,43.92-149.68,113.63-185.04l115.9-58.79c14.3-7.25,30.11-11.03,46.15-11.03h.16c56.26,0,101.86,45.6,101.86,101.86ZM1907.47,895.81l-104.69-78.78c-70.26-52.87-164.47-61.17-242.89-21.39l-509.71,258.52c-68.48,34.73-76.81,129.24-15.45,175.41l104.69,78.78c70.26,52.87,164.47,61.17,242.89,21.39l509.71-258.52c68.48-34.73,76.81-129.24,15.45-175.41ZM2017.12,1035.43h0c-2.4,16.39-8.37,32.05-17.49,45.88h0c-10.82,16.41-25.73,29.72-43.27,38.61l-293.09,148.65c-69.71,35.35-113.63,106.88-113.63,185.04v133.23c0,49.66,40.26,89.92,89.92,89.92h0c14.13,0,28.07-3.33,40.68-9.73l229.84-116.57c69.7-35.35,113.63-106.88,113.63-185.04v-329.52c0-4.1-5.99-4.54-6.58-.48Z"/>
    </clipPath>
    <linearGradient id="_未命名的渐变_10" data-name="未命名的渐变 10" x1="2077.24" y1="1686.56" x2="850.82" y2="472.91" gradientUnits="userSpaceOnUse">
      <stop offset="0" stop-color="#2c67f2"/>
      <stop offset=".93" stop-color="#62cff4"/>
    </linearGradient>
  </defs>
  <g id="Bitty_blk" data-name="Bitty blk">
    <path class="cls-3" d="M3162.25,1535.67c-7.78,0-14.1-6.33-14.1-14.1v-597.63c0-7.78,6.33-14.1,14.1-14.1h160.06c7.78,0,14.1,6.33,14.1,14.1v597.63c0,7.78-6.33,14.1-14.1,14.1h-160.06ZM3242.28,845.39c-55.13,0-99.98-44.85-99.98-99.98s44.85-99.98,99.98-99.98,99.98,44.85,99.98,99.98-44.85,99.98-99.98,99.98Z"/>
    <path class="cls-3" d="M3764.05,1554.05c-145.6,0-232.52-92.08-232.52-246.31v-225.31c0-9.72-7.91-17.63-17.63-17.63h-58.99c-7.78,0-14.1-6.33-14.1-14.1v-126.75c0-7.78,6.33-14.1,14.1-14.1h58.99c9.72,0,17.63-7.91,17.63-17.63v-143.98c0-7.78,6.33-14.1,14.1-14.1h158.91c7.78,0,14.1,6.33,14.1,14.1v143.98c0,9.72,7.91,17.63,17.63,17.63h108.38c7.78,0,14.1,6.33,14.1,14.1v126.75c0,7.78-6.33,14.1-14.1,14.1h-108.38c-9.72,0-17.63,7.91-17.63,17.63v219.57c0,52.94,29.53,83.31,81.01,83.31,12.73,0,28.33-1.87,41.72-5.02,1.08-.26,2.19-.38,3.28-.38,7.78,0,14.1,6.32,14.1,14.09v133.15c0,5.81-3.6,11.09-8.97,13.14-22.25,8.49-55.1,13.76-85.74,13.76Z"/>
    <path class="cls-3" d="M4283.57,1554.05c-145.6,0-232.52-92.08-232.52-246.31v-225.31c0-9.72-7.91-17.63-17.63-17.63h-58.99c-7.78,0-14.1-6.33-14.1-14.1v-126.75c0-7.78,6.33-14.1,14.1-14.1h58.99c9.72,0,17.63-7.91,17.63-17.63v-143.98c0-7.78,6.33-14.1,14.1-14.1h158.91c7.78,0,14.1,6.33,14.1,14.1v143.98c0,9.72,7.91,17.63,17.63,17.63h108.37c7.78,0,14.1,6.33,14.1,14.1v126.75c0,7.78-6.33,14.1-14.1,14.1h-108.37c-9.72,0-17.63,7.91-17.63,17.63v219.57c0,52.94,29.53,83.31,81.01,83.31,12.73,0,28.32-1.87,41.71-5.01,1.08-.26,2.19-.38,3.29-.38,7.78,0,14.1,6.32,14.1,14.09v133.15c0,5.81-3.6,11.09-8.97,13.14-22.25,8.49-55.1,13.76-85.74,13.76Z"/>
    <path class="cls-3" d="M4636.74,1782.59c-43.16,0-88.34-10.25-112.44-25.51-4-2.53-6.39-6.95-6.39-11.81v-123.51c0-7.79,6.31-14.13,14.07-14.13,1.87,0,3.72.38,5.49,1.13,23.13,9.8,52.2,15.42,79.74,15.42,38.98,0,74.26-15.04,99.35-42.35,4.47-4.87,5.81-12.02,3.42-18.23l-244.41-634.6c-1.7-4.4-1.14-9.16,1.53-13.05,2.67-3.89,6.91-6.12,11.63-6.12h160.68c6.08,0,11.46,3.88,13.38,9.64l127.3,381.91c2.44,7.32,9.01,12.06,16.73,12.06s14.24-4.7,16.7-11.98l129.35-382.05c1.94-5.73,7.31-9.58,13.36-9.58h157.45c4.7,0,8.93,2.22,11.6,6.09,2.67,3.87,3.25,8.61,1.59,13.01l-250.28,661.86c-24.02,63.87-59.46,113.01-105.33,146.05-41.55,29.93-91.52,45.75-144.53,45.75Z"/>
    <path class="cls-3" d="M3029.32,1262.63c0,154.94-84.05,282.55-323.47,281.02-107.88-.69-368.88-.17-402.86-.67-7.19-.11-13.39-5.58-13.86-12.76-.02-.31-.03-.63-.03-.94v-854.1c0-11.05,8.95-20,20-20h371.26c175.07,0,272.59,89.3,272.59,220.89,0,60.76-32.69,121.52-76.42,155.63-6.16,4.81-4.56,14.57,2.8,17.22,80.35,28.9,149.99,102.64,149.99,213.71ZM2654.51,822.03h-154.19c-8.28,0-15,6.72-15,15v145.07c0,8.28,6.72,15,15,15h156.54c70.5,0,99.87-41.12,99.87-88.12s-29.37-86.95-102.22-86.95ZM2823.7,1263.28c0-55.91-37.6-109.92-123.37-109.92h-200.02c-8.28,0-15,6.72-15,15v194.48c0,6.15,4.22,11.52,10.22,12.91,0,0,162.76.11,202.96.11,83.58,0,125.21-47.35,125.21-112.58Z"/>
  </g>
  <g id="black">
    <g id="symbol">
      <g class="cls-6">
        <circle id="bg_gradient_blue" data-name="bg_gradient blue" class="cls-3" cx="1510.53" cy="1125.75" r="933.34"/>
      </g>
    </g>
  </g>
  <g id="Bitty_white" data-name="Bitty white">
    <path class="cls-5" d="M3162.25,1535.67c-7.78,0-14.1-6.33-14.1-14.1v-597.63c0-7.78,6.33-14.1,14.1-14.1h160.06c7.78,0,14.1,6.33,14.1,14.1v597.63c0,7.78-6.33,14.1-14.1,14.1h-160.06ZM3242.28,845.39c-55.13,0-99.98-44.85-99.98-99.98s44.85-99.98,99.98-99.98,99.98,44.85,99.98,99.98-44.85,99.98-99.98,99.98Z"/>
    <path class="cls-5" d="M3764.05,1554.05c-145.6,0-232.52-92.08-232.52-246.31v-225.31c0-9.72-7.91-17.63-17.63-17.63h-58.99c-7.78,0-14.1-6.33-14.1-14.1v-126.75c0-7.78,6.33-14.1,14.1-14.1h58.99c9.72,0,17.63-7.91,17.63-17.63v-143.98c0-7.78,6.33-14.1,14.1-14.1h158.91c7.78,0,14.1,6.33,14.1,14.1v143.98c0,9.72,7.91,17.63,17.63,17.63h108.38c7.78,0,14.1,6.33,14.1,14.1v126.75c0,7.78-6.33,14.1-14.1,14.1h-108.38c-9.72,0-17.63,7.91-17.63,17.63v219.57c0,52.94,29.53,83.31,81.01,83.31,12.73,0,28.33-1.87,41.72-5.02,1.08-.26,2.19-.38,3.28-.38,7.78,0,14.1,6.32,14.1,14.09v133.15c0,5.81-3.6,11.09-8.97,13.14-22.25,8.49-55.1,13.76-85.74,13.76Z"/>
    <path class="cls-5" d="M4283.57,1554.05c-145.6,0-232.52-92.08-232.52-246.31v-225.31c0-9.72-7.91-17.63-17.63-17.63h-58.99c-7.78,0-14.1-6.33-14.1-14.1v-126.75c0-7.78,6.33-14.1,14.1-14.1h58.99c9.72,0,17.63-7.91,17.63-17.63v-143.98c0-7.78,6.33-14.1,14.1-14.1h158.91c7.78,0,14.1,6.33,14.1,14.1v143.98c0,9.72,7.91,17.63,17.63,17.63h108.37c7.78,0,14.1,6.33,14.1,14.1v126.75c0,7.78-6.33,14.1-14.1,14.1h-108.37c-9.72,0-17.63,7.91-17.63,17.63v219.57c0,52.94,29.53,83.31,81.01,83.31,12.73,0,28.32-1.87,41.71-5.01,1.08-.26,2.19-.38,3.29-.38,7.78,0,14.1,6.32,14.1,14.09v133.15c0,5.81-3.6,11.09-8.97,13.14-22.25,8.49-55.1,13.76-85.74,13.76Z"/>
    <path class="cls-5" d="M4636.74,1782.59c-43.16,0-88.34-10.25-112.44-25.51-4-2.53-6.39-6.95-6.39-11.81v-123.51c0-7.79,6.31-14.13,14.07-14.13,1.87,0,3.72.38,5.49,1.13,23.13,9.8,52.2,15.42,79.74,15.42,38.98,0,74.26-15.04,99.35-42.35,4.47-4.87,5.81-12.02,3.42-18.23l-244.41-634.6c-1.7-4.4-1.14-9.16,1.53-13.05,2.67-3.89,6.91-6.12,11.63-6.12h160.68c6.08,0,11.46,3.88,13.38,9.64l127.3,381.91c2.44,7.32,9.01,12.06,16.73,12.06s14.24-4.7,16.7-11.98l129.35-382.05c1.94-5.73,7.31-9.58,13.36-9.58h157.45c4.7,0,8.93,2.22,11.6,6.09,2.67,3.87,3.25,8.61,1.59,13.01l-250.28,661.86c-24.02,63.87-59.46,113.01-105.33,146.05-41.55,29.93-91.52,45.75-144.53,45.75Z"/>
    <path class="cls-5" d="M3029.32,1262.63c0,154.94-84.05,282.55-323.47,281.02-107.88-.69-368.88-.17-402.86-.67-7.19-.11-13.39-5.58-13.86-12.76-.02-.31-.03-.63-.03-.94v-854.1c0-11.05,8.95-20,20-20h371.26c175.07,0,272.59,89.3,272.59,220.89,0,60.76-32.69,121.52-76.42,155.63-6.16,4.81-4.56,14.57,2.8,17.22,80.35,28.9,149.99,102.64,149.99,213.71ZM2654.51,822.03h-154.19c-8.28,0-15,6.72-15,15v145.07c0,8.28,6.72,15,15,15h156.54c70.5,0,99.87-41.12,99.87-88.12s-29.37-86.95-102.22-86.95ZM2823.7,1263.28c0-55.91-37.6-109.92-123.37-109.92h-200.02c-8.28,0-15,6.72-15,15v194.48c0,6.15,4.22,11.52,10.22,12.91,0,0,162.76.11,202.96.11,83.58,0,125.21-47.35,125.21-112.58Z"/>
  </g>
  <g id="white">
    <g id="symbol-2" data-name="symbol">
      <g class="cls-7">
        <circle id="bg_gradient_blue-2" data-name="bg_gradient blue" class="cls-5" cx="1510.53" cy="1125.75" r="933.34"/>
      </g>
    </g>
  </g>
  <g id="Bitty_blue" data-name="Bitty blue">
    <path class="cls-4" d="M3162.25,1535.67c-7.78,0-14.1-6.33-14.1-14.1v-597.63c0-7.78,6.33-14.1,14.1-14.1h160.06c7.78,0,14.1,6.33,14.1,14.1v597.63c0,7.78-6.33,14.1-14.1,14.1h-160.06ZM3242.28,845.39c-55.13,0-99.98-44.85-99.98-99.98s44.85-99.98,99.98-99.98,99.98,44.85,99.98,99.98-44.85,99.98-99.98,99.98Z"/>
    <path class="cls-4" d="M3764.05,1554.05c-145.6,0-232.52-92.08-232.52-246.31v-225.31c0-9.72-7.91-17.63-17.63-17.63h-58.99c-7.78,0-14.1-6.33-14.1-14.1v-126.75c0-7.78,6.33-14.1,14.1-14.1h58.99c9.72,0,17.63-7.91,17.63-17.63v-143.98c0-7.78,6.33-14.1,14.1-14.1h158.91c7.78,0,14.1,6.33,14.1,14.1v143.98c0,9.72,7.91,17.63,17.63,17.63h108.38c7.78,0,14.1,6.33,14.1,14.1v126.75c0,7.78-6.33,14.1-14.1,14.1h-108.38c-9.72,0-17.63,7.91-17.63,17.63v219.57c0,52.94,29.53,83.31,81.01,83.31,12.73,0,28.33-1.87,41.72-5.02,1.08-.26,2.19-.38,3.28-.38,7.78,0,14.1,6.32,14.1,14.09v133.15c0,5.81-3.6,11.09-8.97,13.14-22.25,8.49-55.1,13.76-85.74,13.76Z"/>
    <path class="cls-4" d="M4283.57,1554.05c-145.6,0-232.52-92.08-232.52-246.31v-225.31c0-9.72-7.91-17.63-17.63-17.63h-58.99c-7.78,0-14.1-6.33-14.1-14.1v-126.75c0-7.78,6.33-14.1,14.1-14.1h58.99c9.72,0,17.63-7.91,17.63-17.63v-143.98c0-7.78,6.33-14.1,14.1-14.1h158.91c7.78,0,14.1,6.33,14.1,14.1v143.98c0,9.72,7.91,17.63,17.63,17.63h108.37c7.78,0,14.1,6.33,14.1,14.1v126.75c0,7.78-6.33,14.1-14.1,14.1h-108.37c-9.72,0-17.63,7.91-17.63,17.63v219.57c0,52.94,29.53,83.31,81.01,83.31,12.73,0,28.32-1.87,41.71-5.01,1.08-.26,2.19-.38,3.29-.38,7.78,0,14.1,6.32,14.1,14.09v133.15c0,5.81-3.6,11.09-8.97,13.14-22.25,8.49-55.1,13.76-85.74,13.76Z"/>
    <path class="cls-4" d="M4636.74,1782.59c-43.16,0-88.34-10.25-112.44-25.51-4-2.53-6.39-6.95-6.39-11.81v-123.51c0-7.79,6.31-14.13,14.07-14.13,1.87,0,3.72.38,5.49,1.13,23.13,9.8,52.2,15.42,79.74,15.42,38.98,0,74.26-15.04,99.35-42.35,4.47-4.87,5.81-12.02,3.42-18.23l-244.41-634.6c-1.7-4.4-1.14-9.16,1.53-13.05,2.67-3.89,6.91-6.12,11.63-6.12h160.68c6.08,0,11.46,3.88,13.38,9.64l127.3,381.91c2.44,7.32,9.01,12.06,16.73,12.06s14.24-4.7,16.7-11.98l129.35-382.05c1.94-5.73,7.31-9.58,13.36-9.58h157.45c4.7,0,8.93,2.22,11.6,6.09,2.67,3.87,3.25,8.61,1.59,13.01l-250.28,661.86c-24.02,63.87-59.46,113.01-105.33,146.05-41.55,29.93-91.52,45.75-144.53,45.75Z"/>
    <path class="cls-4" d="M3029.32,1262.63c0,154.94-84.05,282.55-323.47,281.02-107.88-.69-368.88-.17-402.86-.67-7.19-.11-13.39-5.58-13.86-12.76-.02-.31-.03-.63-.03-.94v-854.1c0-11.05,8.95-20,20-20h371.26c175.07,0,272.59,89.3,272.59,220.89,0,60.76-32.69,121.52-76.42,155.63-6.16,4.81-4.56,14.57,2.8,17.22,80.35,28.9,149.99,102.64,149.99,213.71ZM2654.51,822.03h-154.19c-8.28,0-15,6.72-15,15v145.07c0,8.28,6.72,15,15,15h156.54c70.5,0,99.87-41.12,99.87-88.12s-29.37-86.95-102.22-86.95ZM2823.7,1263.28c0-55.91-37.6-109.92-123.37-109.92h-200.02c-8.28,0-15,6.72-15,15v194.48c0,6.15,4.22,11.52,10.22,12.91,0,0,162.76.11,202.96.11,83.58,0,125.21-47.35,125.21-112.58Z"/>
  </g>
  <g id="solid">
    <g id="symbol-3" data-name="symbol">
      <g class="cls-9">
        <circle id="bg_gradient_blue-3" data-name="bg_gradient blue" class="cls-4" cx="1510.53" cy="1125.75" r="933.34"/>
      </g>
    </g>
  </g>
  <g id="blue">
    <g id="symbol-4" data-name="symbol">
      <g class="cls-8">
        <circle id="bg_gradient_blue-4" data-name="bg_gradient blue" class="cls-1" cx="1510.53" cy="1125.75" r="933.34"/>
      </g>
    </g>
  </g>
</svg>