<svg width="639" height="227" viewBox="0 0 639 227" fill="none" xmlns="http://www.w3.org/2000/svg">
<path d="M582.364 204C578.549 204 574.984 203.749 571.671 203.246C568.357 202.743 565.747 202.139 563.839 201.435L566.249 179.56C568.056 179.963 570.014 180.264 572.123 180.466C574.231 180.767 576.29 180.918 578.298 180.918C585.025 180.918 589.845 179.51 592.757 176.694C595.769 173.878 597.275 169.553 597.275 163.72V155.121C594.865 161.256 591.451 165.731 587.033 168.547C582.615 171.263 577.394 172.621 571.37 172.621C562.032 172.621 554.802 169.251 549.681 162.513C544.56 155.674 542 146.069 542 133.698V99H573.779V135.358C573.779 144.309 576.942 148.784 583.268 148.784C587.184 148.784 590.297 147.175 592.606 143.957C595.016 140.739 596.221 136.514 596.221 131.284V99H628V156.931C628 173.023 624.034 184.891 616.102 192.534C608.169 200.178 596.924 204 582.364 204Z" fill="#262E3B"/>
<path d="M512.735 176C505.611 176 499.791 174.789 495.276 172.366C490.861 169.943 487.65 166.662 485.643 162.523C483.636 158.384 482.633 153.741 482.633 148.592V117.702H473V98.925H484.89L498.888 75H514.39V98.925H531.849V117.702H514.39V144.201C514.39 146.523 515.143 148.34 516.648 149.652C518.153 150.864 520.11 151.469 522.518 151.469C524.926 151.469 527.334 150.864 529.742 149.652L532 170.7C529.592 172.416 526.531 173.729 522.819 174.637C519.106 175.546 515.745 176 512.735 176Z" fill="#262E3B"/>
<path d="M449.735 176C442.611 176 436.791 174.789 432.276 172.366C427.861 169.943 424.65 166.662 422.643 162.523C420.636 158.384 419.633 153.741 419.633 148.592V117.702H410V98.925H421.89L435.888 75H451.39V98.925H468.849V117.702H451.39V144.201C451.39 146.523 452.143 148.34 453.648 149.652C455.153 150.864 457.11 151.469 459.518 151.469C461.926 151.469 464.334 150.864 466.742 149.652L469 170.7C466.592 172.416 463.531 173.729 459.819 174.637C456.106 175.546 452.745 176 449.735 176Z" fill="#262E3B"/>
<path d="M392.946 176C386.281 176 380.86 174.79 376.683 172.37C372.604 169.95 369.62 166.674 367.73 162.54C365.84 158.406 364.895 153.768 364.895 148.626V99.0196H396.378V144.24C396.378 146.559 397.024 148.374 398.317 149.684C399.71 150.894 401.351 151.499 403.241 151.499C405.231 151.499 407.27 150.894 409.359 149.684L411 170.707C408.812 172.421 405.977 173.731 402.495 174.639C399.014 175.546 395.831 176 392.946 176ZM380.711 90.7014C376.135 90.7014 372.206 89.2395 368.924 86.3155C365.641 83.2907 364 79.6106 364 75.2751C364 72.2503 364.796 69.6289 366.387 67.4107C367.979 65.0917 370.068 63.2768 372.654 61.9661C375.24 60.6554 377.926 60 380.711 60C383.795 60 386.58 60.7058 389.067 62.1173C391.653 63.5289 393.692 65.3942 395.184 67.7132C396.776 70.0322 397.571 72.5528 397.571 75.2751C397.571 78.2999 396.726 80.9718 395.035 83.2907C393.443 85.6097 391.355 87.4246 388.768 88.7353C386.281 90.0461 383.596 90.7014 380.711 90.7014Z" fill="#262E3B"/>
<path d="M295.144 175H256V71H298.306C314.867 71 327.012 73.3178 334.74 77.9535C342.469 82.4884 346.333 88.7868 346.333 96.8488C346.333 107.329 340.863 114.535 329.922 118.465C343.974 121.186 351 129.5 351 143.407C351 154.089 346.132 162.05 336.396 167.291C326.761 172.43 313.01 175 295.144 175ZM289.574 112.116H301.468C305.482 112.116 308.744 111.209 311.254 109.395C313.763 107.581 315.017 105.163 315.017 102.14C315.017 95.1861 310.3 91.7093 300.865 91.7093H289.574V112.116ZM302.371 153.686C307.389 153.686 311.254 152.678 313.964 150.663C316.674 148.647 318.029 145.826 318.029 142.198C318.029 138.267 316.674 135.244 313.964 133.128C311.254 130.911 307.389 129.802 302.371 129.802H289.423V153.686H302.371Z" fill="#262E3B"/>
<path d="M118 6C58.3543 6 10 54.3543 10 114C10 173.646 58.3543 222 118 222C177.646 222 226 173.646 226 114C226 54.3543 177.651 6 118 6ZM188.875 146.062C188.875 149.79 185.853 152.812 182.125 152.812H124.75H111.25H53.875C50.1471 152.812 47.125 149.79 47.125 146.062V112.312C47.125 91.1715 64.7965 75.1875 85.9375 75.1875C99.4444 75.1875 111.184 81.4995 118 92.0625C124.816 81.4995 136.556 75.1875 150.062 75.1875C171.203 75.1875 188.875 91.1715 188.875 112.312V146.062Z" fill="#0E85FF"/>
<path d="M104 109C109.524 109 114 113.176 114 119V134C114 139.824 109.524 144 104 144C98.4758 144 94 139.824 94 134V119C94 113.176 98.4758 109 104 109ZM105.667 130.667C105.667 132.595 107.171 134 109 134C110.829 134 112.333 132.595 112.333 130.667V122.333C112.333 120.405 110.829 119 109 119C107.171 119 105.667 120.405 105.667 122.333V130.667Z" fill="black"/>
<path d="M159 109C164.524 109 169 113.176 169 119V134C169 139.824 164.524 144 159 144C153.476 144 149 139.824 149 134V119C149 113.176 153.476 109 159 109ZM160.667 130.667C160.667 132.595 162.171 134 164 134C165.829 134 167.333 132.595 167.333 130.667V122.333C167.333 120.405 165.829 119 164 119C162.171 119 160.667 120.405 160.667 122.333V130.667Z" fill="black"/>
</svg>
