<?xml version="1.0" encoding="UTF-8"?>
<svg xmlns="http://www.w3.org/2000/svg" xmlns:xlink="http://www.w3.org/1999/xlink" viewBox="0 0 6977.14 7867.72">
  <defs>
    <style>
      .cls-1 {
        fill: url(#_未命名的渐变_10);
      }

      .cls-1, .cls-2, .cls-3, .cls-4, .cls-5, .cls-6, .cls-7 {
        stroke-width: 0px;
      }

      .cls-8 {
        clip-path: url(#clippath);
      }

      .cls-2 {
        fill: none;
      }

      .cls-3 {
        fill: url(#_未命名的渐变_10-2);
      }

      .cls-4 {
        fill: url(#_未命名的渐变_10-3);
      }

      .cls-9 {
        clip-path: url(#clippath-1);
      }

      .cls-10 {
        clip-path: url(#clippath-4);
      }

      .cls-11 {
        clip-path: url(#clippath-3);
      }

      .cls-12 {
        clip-path: url(#clippath-2);
      }

      .cls-13 {
        clip-path: url(#clippath-7);
      }

      .cls-14 {
        clip-path: url(#clippath-8);
      }

      .cls-15 {
        clip-path: url(#clippath-6);
      }

      .cls-16 {
        clip-path: url(#clippath-5);
      }

      .cls-17 {
        clip-path: url(#clippath-9);
      }

      .cls-18 {
        clip-path: url(#clippath-14);
      }

      .cls-19 {
        clip-path: url(#clippath-13);
      }

      .cls-20 {
        clip-path: url(#clippath-12);
      }

      .cls-21 {
        clip-path: url(#clippath-10);
      }

      .cls-22 {
        clip-path: url(#clippath-11);
      }

      .cls-6 {
        fill: #0c82ff;
      }

      .cls-7 {
        fill: #fff;
      }
    </style>
    <clipPath id="clippath">
      <path id="line" class="cls-2" d="M1333.3,6439.75h0c0,82.93-46.6,158.82-120.57,196.34l-214.44,108.76c-17.84,9.05-32.97,22.66-43.84,39.45l-.02.02c-7.22,11.15-12.42,23.48-15.36,36.43h0c-.87,3.84-6.52,3.2-6.52-.73v-217.94c0-82.93,46.6-158.82,120.56-196.34l122.98-62.37c15.17-7.7,31.95-11.71,48.96-11.71h.17c59.69,0,108.08,48.39,108.08,108.08ZM1956.7,6633.43l-111.08-83.59c-74.55-56.1-174.51-64.9-257.72-22.7l-540.82,274.3c-72.66,36.85-81.5,137.13-16.39,186.12l111.08,83.59c74.55,56.1,174.51,64.9,257.72,22.7l540.82-274.3c72.66-36.85,81.5-137.13,16.39-186.12ZM2073.04,6781.56h0c-2.55,17.39-8.88,34.01-18.56,48.68h0c-11.48,17.41-27.31,31.53-45.91,40.97l-310.98,157.73c-73.96,37.51-120.57,113.41-120.57,196.34v141.36c0,52.69,42.72,95.41,95.41,95.41h0c15,0,29.78-3.54,43.16-10.32l243.87-123.69c73.96-37.51,120.56-113.41,120.56-196.34v-349.63c0-4.35-6.36-4.82-6.99-.51Z"/>
    </clipPath>
    <clipPath id="clippath-1">
      <path id="line-2" data-name="line" class="cls-2" d="M1333.3,6439.75h0c0,82.93-46.6,158.82-120.57,196.34l-214.44,108.76c-17.84,9.05-32.97,22.66-43.84,39.45l-.02.02c-7.22,11.15-12.42,23.48-15.36,36.43h0c-.87,3.84-6.52,3.2-6.52-.73v-217.94c0-82.93,46.6-158.82,120.56-196.34l122.98-62.37c15.17-7.7,31.95-11.71,48.96-11.71h.17c59.69,0,108.08,48.39,108.08,108.08ZM1956.7,6633.43l-111.08-83.59c-74.55-56.1-174.51-64.9-257.72-22.7l-540.82,274.3c-72.66,36.85-81.5,137.13-16.39,186.12l111.08,83.59c74.55,56.1,174.51,64.9,257.72,22.7l540.82-274.3c72.66-36.85,81.5-137.13,16.39-186.12ZM2073.04,6781.56h0c-2.55,17.39-8.88,34.01-18.56,48.68h0c-11.48,17.41-27.31,31.53-45.91,40.97l-310.98,157.73c-73.96,37.51-120.57,113.41-120.57,196.34v141.36c0,52.69,42.72,95.41,95.41,95.41h0c15,0,29.78-3.54,43.16-10.32l243.87-123.69c73.96-37.51,120.56-113.41,120.56-196.34v-349.63c0-4.35-6.36-4.82-6.99-.51Z"/>
    </clipPath>
    <clipPath id="clippath-2">
      <path id="line-3" data-name="line" class="cls-2" d="M1333.3,6439.75h0c0,82.93-46.6,158.82-120.57,196.34l-214.44,108.76c-17.84,9.05-32.97,22.66-43.84,39.45l-.02.02c-7.22,11.15-12.42,23.48-15.36,36.43h0c-.87,3.84-6.52,3.2-6.52-.73v-217.94c0-82.93,46.6-158.82,120.56-196.34l122.98-62.37c15.17-7.7,31.95-11.71,48.96-11.71h.17c59.69,0,108.08,48.39,108.08,108.08ZM1956.7,6633.43l-111.08-83.59c-74.55-56.1-174.51-64.9-257.72-22.7l-540.82,274.3c-72.66,36.85-81.5,137.13-16.39,186.12l111.08,83.59c74.55,56.1,174.51,64.9,257.72,22.7l540.82-274.3c72.66-36.85,81.5-137.13,16.39-186.12ZM2073.04,6781.56h0c-2.55,17.39-8.88,34.01-18.56,48.68h0c-11.48,17.41-27.31,31.53-45.91,40.97l-310.98,157.73c-73.96,37.51-120.57,113.41-120.57,196.34v141.36c0,52.69,42.72,95.41,95.41,95.41h0c15,0,29.78-3.54,43.16-10.32l243.87-123.69c73.96-37.51,120.56-113.41,120.56-196.34v-349.63c0-4.35-6.36-4.82-6.99-.51Z"/>
    </clipPath>
    <clipPath id="clippath-3">
      <path id="line-4" data-name="line" class="cls-2" d="M1333.3,6439.75h0c0,82.93-46.6,158.82-120.57,196.34l-214.44,108.76c-17.84,9.05-32.97,22.66-43.84,39.45l-.02.02c-7.22,11.15-12.42,23.48-15.36,36.43h0c-.87,3.84-6.52,3.2-6.52-.73v-217.94c0-82.93,46.6-158.82,120.56-196.34l122.98-62.37c15.17-7.7,31.95-11.71,48.96-11.71h.17c59.69,0,108.08,48.39,108.08,108.08ZM1956.7,6633.43l-111.08-83.59c-74.55-56.1-174.51-64.9-257.72-22.7l-540.82,274.3c-72.66,36.85-81.5,137.13-16.39,186.12l111.08,83.59c74.55,56.1,174.51,64.9,257.72,22.7l540.82-274.3c72.66-36.85,81.5-137.13,16.39-186.12ZM2073.04,6781.56h0c-2.55,17.39-8.88,34.01-18.56,48.68h0c-11.48,17.41-27.31,31.53-45.91,40.97l-310.98,157.73c-73.96,37.51-120.57,113.41-120.57,196.34v141.36c0,52.69,42.72,95.41,95.41,95.41h0c15,0,29.78-3.54,43.16-10.32l243.87-123.69c73.96-37.51,120.56-113.41,120.56-196.34v-349.63c0-4.35-6.36-4.82-6.99-.51Z"/>
    </clipPath>
    <linearGradient id="_未命名的渐变_10" data-name="未命名的渐变 10" x1="2136.83" y1="7472.45" x2="835.53" y2="6184.71" gradientUnits="userSpaceOnUse">
      <stop offset="0" stop-color="#2c67f2"/>
      <stop offset=".93" stop-color="#62cff4"/>
    </linearGradient>
    <clipPath id="clippath-4">
      <path id="line-5" data-name="line" class="cls-2" d="M1319.94,3710h0c0,78.16-43.92,149.69-113.63,185.04l-202.1,102.5c-16.81,8.53-31.07,21.36-41.32,37.18v.02c-6.82,10.51-11.72,22.13-14.5,34.34h0c-.82,3.62-6.15,3.02-6.15-.69v-205.4c0-78.16,43.92-149.68,113.63-185.04l115.9-58.79c14.3-7.25,30.11-11.03,46.15-11.03h.16c56.26,0,101.86,45.6,101.86,101.86ZM1907.47,3892.53l-104.69-78.78c-70.26-52.87-164.47-61.17-242.89-21.39l-509.71,258.52c-68.48,34.73-76.81,129.24-15.45,175.41l104.69,78.78c70.26,52.87,164.47,61.17,242.89,21.39l509.71-258.52c68.48-34.73,76.81-129.24,15.45-175.41ZM2017.12,4032.15h0c-2.4,16.39-8.37,32.05-17.49,45.88h0c-10.82,16.41-25.73,29.72-43.27,38.61l-293.09,148.65c-69.71,35.35-113.63,106.88-113.63,185.04v133.23c0,49.66,40.26,89.92,89.92,89.92h0c14.13,0,28.07-3.33,40.68-9.73l229.84-116.57c69.7-35.35,113.63-106.88,113.63-185.04v-329.52c0-4.1-5.99-4.54-6.58-.48Z"/>
    </clipPath>
    <clipPath id="clippath-5">
      <path id="line-6" data-name="line" class="cls-2" d="M137,2829.69h0c0,.21-.12.41-.31.51l-.56.28s-.09.06-.11.1h0s-.03.06-.04.09h0s-.02,0-.02,0v-.56c0-.21.12-.41.31-.51l.32-.16s.08-.03.13-.03h0c.15,0,.28.13.28.28ZM138.62,2830.2l-.29-.22c-.19-.15-.45-.17-.67-.06l-1.4.71c-.19.1-.21.35-.04.48l.29.22c.19.15.45.17.67.06l1.4-.71c.19-.1.21-.35.04-.48ZM138.92,2830.58h0s-.02.09-.05.13h0s-.07.08-.12.11l-.8.41c-.19.1-.31.29-.31.51v.37c0,.14.11.25.25.25h0s.08,0,.11-.03l.63-.32c.19-.1.31-.29.31-.51v-.9s-.02-.01-.02,0Z"/>
    </clipPath>
    <clipPath id="clippath-6">
      <path id="line-7" data-name="line" class="cls-2" d="M137,2829.69h0c0,.21-.12.41-.31.51l-.56.28s-.09.06-.11.1h0s-.03.06-.04.09h0s-.02,0-.02,0v-.56c0-.21.12-.41.31-.51l.32-.16s.08-.03.13-.03h0c.15,0,.28.13.28.28ZM138.62,2830.2l-.29-.22c-.19-.15-.45-.17-.67-.06l-1.4.71c-.19.1-.21.35-.04.48l.29.22c.19.15.45.17.67.06l1.4-.71c.19-.1.21-.35.04-.48ZM138.92,2830.58h0s-.02.09-.05.13h0s-.07.08-.12.11l-.8.41c-.19.1-.31.29-.31.51v.37c0,.14.11.25.25.25h0s.08,0,.11-.03l.63-.32c.19-.1.31-.29.31-.51v-.9s-.02-.01-.02,0Z"/>
    </clipPath>
    <clipPath id="clippath-7">
      <path id="line-8" data-name="line" class="cls-2" d="M137,2829.69h0c0,.21-.12.41-.31.51l-.56.28s-.09.06-.11.1h0s-.03.06-.04.09h0s-.02,0-.02,0v-.56c0-.21.12-.41.31-.51l.32-.16s.08-.03.13-.03h0c.15,0,.28.13.28.28ZM138.62,2830.2l-.29-.22c-.19-.15-.45-.17-.67-.06l-1.4.71c-.19.1-.21.35-.04.48l.29.22c.19.15.45.17.67.06l1.4-.71c.19-.1.21-.35.04-.48ZM138.92,2830.58h0s-.02.09-.05.13h0s-.07.08-.12.11l-.8.41c-.19.1-.31.29-.31.51v.37c0,.14.11.25.25.25h0s.08,0,.11-.03l.63-.32c.19-.1.31-.29.31-.51v-.9s-.02-.01-.02,0Z"/>
    </clipPath>
    <clipPath id="clippath-8">
      <path id="line-9" data-name="line" class="cls-2" d="M137,2829.69h0c0,.21-.12.41-.31.51l-.56.28s-.09.06-.11.1h0s-.03.06-.04.09h0s-.02,0-.02,0v-.56c0-.21.12-.41.31-.51l.32-.16s.08-.03.13-.03h0c.15,0,.28.13.28.28ZM138.62,2830.2l-.29-.22c-.19-.15-.45-.17-.67-.06l-1.4.71c-.19.1-.21.35-.04.48l.29.22c.19.15.45.17.67.06l1.4-.71c.19-.1.21-.35.04-.48ZM138.92,2830.58h0s-.02.09-.05.13h0s-.07.08-.12.11l-.8.41c-.19.1-.31.29-.31.51v.37c0,.14.11.25.25.25h0s.08,0,.11-.03l.63-.32c.19-.1.31-.29.31-.51v-.9s-.02-.01-.02,0Z"/>
    </clipPath>
    <linearGradient id="_未命名的渐变_10-2" data-name="未命名的渐变 10" x1="139.08" y1="2832.37" x2="135.71" y2="2829.03" xlink:href="#_未命名的渐变_10"/>
    <clipPath id="clippath-9">
      <path id="line-10" data-name="line" class="cls-2" d="M159.17,2831.37h0c0,.27-.15.51-.39.63l-.69.35c-.06.03-.11.07-.14.13h0s-.04.08-.05.12h0s-.02.01-.02,0v-.7c0-.27.15-.51.39-.63l.4-.2s.1-.04.16-.04h0c.19,0,.35.16.35.35ZM161.18,2831.99l-.36-.27c-.24-.18-.56-.21-.83-.07l-1.74.88c-.23.12-.26.44-.05.6l.36.27c.24.18.56.21.83.07l1.74-.88c.23-.12.26-.44.05-.6ZM161.56,2832.47h0c0,.06-.03.11-.06.16h0c-.04.06-.09.1-.15.13l-1,.51c-.24.12-.39.37-.39.63v.46c0,.17.14.31.31.31h0s.1-.01.14-.03l.79-.4c.24-.12.39-.37.39-.63v-1.13s-.02-.02-.02,0Z"/>
    </clipPath>
    <clipPath id="clippath-10">
      <path id="line-11" data-name="line" class="cls-2" d="M187.85,2836.38h0c0,.43-.24.82-.62,1.01l-1.1.56c-.09.05-.17.12-.23.2h0c-.04.06-.06.12-.08.19h0s-.03.02-.03,0v-1.12c0-.43.24-.82.62-1.01l.63-.32c.08-.04.16-.06.25-.06h0c.31,0,.56.25.56.56ZM191.06,2837.38l-.57-.43c-.38-.29-.9-.33-1.33-.12l-2.78,1.41c-.37.19-.42.71-.08.96l.57.43c.38.29.9.33,1.33.12l2.78-1.41c.37-.19.42-.71.08-.96ZM191.66,2838.14h0c-.01.09-.05.18-.1.25h0c-.06.09-.14.16-.24.21l-1.6.81c-.38.19-.62.58-.62,1.01v.73c0,.27.22.49.49.49h0c.08,0,.15-.02.22-.05l1.26-.64c.38-.19.62-.58.62-1.01v-1.8s-.03-.02-.04,0Z"/>
    </clipPath>
    <clipPath id="clippath-11">
      <path id="line-12" data-name="line" class="cls-2" d="M187.85,2836.38h0c0,.43-.24.82-.62,1.01l-1.1.56c-.09.05-.17.12-.23.2h0c-.04.06-.06.12-.08.19h0s-.03.02-.03,0v-1.12c0-.43.24-.82.62-1.01l.63-.32c.08-.04.16-.06.25-.06h0c.31,0,.56.25.56.56ZM191.06,2837.38l-.57-.43c-.38-.29-.9-.33-1.33-.12l-2.78,1.41c-.37.19-.42.71-.08.96l.57.43c.38.29.9.33,1.33.12l2.78-1.41c.37-.19.42-.71.08-.96ZM191.66,2838.14h0c-.01.09-.05.18-.1.25h0c-.06.09-.14.16-.24.21l-1.6.81c-.38.19-.62.58-.62,1.01v.73c0,.27.22.49.49.49h0c.08,0,.15-.02.22-.05l1.26-.64c.38-.19.62-.58.62-1.01v-1.8s-.03-.02-.04,0Z"/>
    </clipPath>
    <clipPath id="clippath-12">
      <path id="line-13" data-name="line" class="cls-2" d="M187.85,2836.38h0c0,.43-.24.82-.62,1.01l-1.1.56c-.09.05-.17.12-.23.2h0c-.04.06-.06.12-.08.19h0s-.03.02-.03,0v-1.12c0-.43.24-.82.62-1.01l.63-.32c.08-.04.16-.06.25-.06h0c.31,0,.56.25.56.56ZM191.06,2837.38l-.57-.43c-.38-.29-.9-.33-1.33-.12l-2.78,1.41c-.37.19-.42.71-.08.96l.57.43c.38.29.9.33,1.33.12l2.78-1.41c.37-.19.42-.71.08-.96ZM191.66,2838.14h0c-.01.09-.05.18-.1.25h0c-.06.09-.14.16-.24.21l-1.6.81c-.38.19-.62.58-.62,1.01v.73c0,.27.22.49.49.49h0c.08,0,.15-.02.22-.05l1.26-.64c.38-.19.62-.58.62-1.01v-1.8s-.03-.02-.04,0Z"/>
    </clipPath>
    <clipPath id="clippath-13">
      <path id="line-14" data-name="line" class="cls-2" d="M187.85,2836.38h0c0,.43-.24.82-.62,1.01l-1.1.56c-.09.05-.17.12-.23.2h0c-.04.06-.06.12-.08.19h0s-.03.02-.03,0v-1.12c0-.43.24-.82.62-1.01l.63-.32c.08-.04.16-.06.25-.06h0c.31,0,.56.25.56.56ZM191.06,2837.38l-.57-.43c-.38-.29-.9-.33-1.33-.12l-2.78,1.41c-.37.19-.42.71-.08.96l.57.43c.38.29.9.33,1.33.12l2.78-1.41c.37-.19.42-.71.08-.96ZM191.66,2838.14h0c-.01.09-.05.18-.1.25h0c-.06.09-.14.16-.24.21l-1.6.81c-.38.19-.62.58-.62,1.01v.73c0,.27.22.49.49.49h0c.08,0,.15-.02.22-.05l1.26-.64c.38-.19.62-.58.62-1.01v-1.8s-.03-.02-.04,0Z"/>
    </clipPath>
    <linearGradient id="_未命名的渐变_10-3" data-name="未命名的渐变 10" x1="191.99" y1="2841.7" x2="185.29" y2="2835.07" xlink:href="#_未命名的渐变_10"/>
    <clipPath id="clippath-14">
      <path id="line-15" data-name="line" class="cls-2" d="M235.21,2841.51h0c0,.57-.32,1.09-.82,1.34l-1.47.74c-.12.06-.23.16-.3.27h0c-.05.08-.08.16-.11.25h0s-.04.02-.04,0v-1.49c0-.57.32-1.09.82-1.34l.84-.43c.1-.05.22-.08.33-.08h0c.41,0,.74.33.74.74ZM239.47,2842.84l-.76-.57c-.51-.38-1.19-.44-1.76-.16l-3.7,1.88c-.5.25-.56.94-.11,1.27l.76.57c.51.38,1.19.44,1.76.16l3.7-1.88c.5-.25.56-.94.11-1.27ZM240.27,2843.85h0c-.02.12-.06.23-.13.33h0c-.08.12-.19.22-.31.28l-2.13,1.08c-.51.26-.82.78-.82,1.34v.97c0,.36.29.65.65.65h0c.1,0,.2-.02.3-.07l1.67-.85c.51-.26.82-.78.82-1.34v-2.39s-.04-.03-.05,0Z"/>
    </clipPath>
  </defs>
  <g id="_图层_3" data-name="图层 3">
    <g id="black">
      <g id="symbol">
        <g class="cls-8">
          <circle id="bg_gradient_blue" data-name="bg_gradient blue" class="cls-5" cx="1535.52" cy="6877.4" r="990.32"/>
        </g>
      </g>
    </g>
    <g id="white">
      <g id="symbol-2" data-name="symbol">
        <g class="cls-9">
          <circle id="bg_gradient_blue-2" data-name="bg_gradient blue" class="cls-7" cx="1535.52" cy="6877.4" r="990.32"/>
        </g>
      </g>
    </g>
    <g id="solid">
      <g id="symbol-3" data-name="symbol">
        <g class="cls-12">
          <circle id="bg_gradient_blue-3" data-name="bg_gradient blue" class="cls-6" cx="1535.52" cy="6877.4" r="990.32"/>
        </g>
      </g>
    </g>
    <g id="blue">
      <g id="symbol-4" data-name="symbol">
        <g class="cls-11">
          <circle id="bg_gradient_blue-4" data-name="bg_gradient blue" class="cls-1" cx="1535.52" cy="6877.4" r="990.32"/>
        </g>
      </g>
    </g>
    <g>
      <path class="cls-5" d="M3172.96,7378.74c-7.78,0-14.1-6.33-14.1-14.1v-597.63c0-7.78,6.33-14.1,14.1-14.1h160.06c7.78,0,14.1,6.33,14.1,14.1v597.63c0,7.78-6.33,14.1-14.1,14.1h-160.06ZM3252.99,6688.46c-55.13,0-99.98-44.85-99.98-99.98s44.85-99.98,99.98-99.98,99.98,44.85,99.98,99.98-44.85,99.98-99.98,99.98Z"/>
      <path class="cls-5" d="M3774.76,7397.12c-145.6,0-232.52-92.08-232.52-246.31v-225.31c0-9.72-7.91-17.63-17.63-17.63h-58.99c-7.78,0-14.1-6.33-14.1-14.1v-126.75c0-7.78,6.33-14.1,14.1-14.1h58.99c9.72,0,17.63-7.91,17.63-17.63v-143.98c0-7.78,6.33-14.1,14.1-14.1h158.91c7.78,0,14.1,6.33,14.1,14.1v143.98c0,9.72,7.91,17.63,17.63,17.63h108.38c7.78,0,14.1,6.33,14.1,14.1v126.75c0,7.78-6.33,14.1-14.1,14.1h-108.38c-9.72,0-17.63,7.91-17.63,17.63v219.57c0,52.94,29.53,83.31,81.01,83.31,12.73,0,28.33-1.87,41.72-5.02,1.08-.26,2.19-.38,3.28-.38,7.78,0,14.1,6.32,14.1,14.09v133.15c0,5.81-3.6,11.09-8.97,13.14-22.25,8.49-55.1,13.76-85.74,13.76Z"/>
      <path class="cls-5" d="M4294.28,7397.12c-145.6,0-232.52-92.08-232.52-246.31v-225.31c0-9.72-7.91-17.63-17.63-17.63h-58.99c-7.78,0-14.1-6.33-14.1-14.1v-126.75c0-7.78,6.33-14.1,14.1-14.1h58.99c9.72,0,17.63-7.91,17.63-17.63v-143.98c0-7.78,6.33-14.1,14.1-14.1h158.91c7.78,0,14.1,6.33,14.1,14.1v143.98c0,9.72,7.91,17.63,17.63,17.63h108.37c7.78,0,14.1,6.33,14.1,14.1v126.75c0,7.78-6.33,14.1-14.1,14.1h-108.37c-9.72,0-17.63,7.91-17.63,17.63v219.57c0,52.94,29.53,83.31,81.01,83.31,12.73,0,28.32-1.87,41.71-5.01,1.08-.26,2.19-.38,3.29-.38,7.78,0,14.1,6.32,14.1,14.09v133.15c0,5.81-3.6,11.09-8.97,13.14-22.25,8.49-55.1,13.76-85.74,13.76Z"/>
      <path class="cls-5" d="M4647.45,7625.66c-43.16,0-88.34-10.25-112.44-25.51-4-2.53-6.39-6.95-6.39-11.81v-123.51c0-7.79,6.31-14.13,14.07-14.13,1.87,0,3.72.38,5.49,1.13,23.13,9.8,52.2,15.42,79.74,15.42,38.98,0,74.26-15.04,99.35-42.35,4.47-4.87,5.81-12.02,3.42-18.23l-244.41-634.6c-1.7-4.4-1.14-9.16,1.53-13.05,2.67-3.89,6.91-6.12,11.63-6.12h160.68c6.08,0,11.46,3.88,13.38,9.64l127.3,381.91c2.44,7.32,9.01,12.06,16.73,12.06s14.24-4.7,16.7-11.98l129.35-382.05c1.94-5.73,7.31-9.58,13.36-9.58h157.45c4.7,0,8.93,2.22,11.6,6.09s3.25,8.61,1.59,13.01l-250.28,661.86c-24.02,63.87-59.46,113.01-105.33,146.05-41.55,29.93-91.52,45.75-144.53,45.75Z"/>
      <path class="cls-5" d="M2686.51,7397.12c-70.35,0-138.62-20.09-197.44-58.09-57.29-37.02-102.95-89.1-132.04-150.62-10.63-22.49-18.96-46.11-24.74-70.2-6.67-27.77-10.06-56.49-10.06-85.35v-566.13c0-7.78,6.33-14.1,14.1-14.1h158.71c7.78,0,14.1,6.33,14.1,14.1v230.57c0,2.86,1.12,5.52,3.17,7.49,1.94,1.87,4.59,2.95,7.26,2.95,1.61,0,3.18-.37,4.65-1.11,50.74-25.27,105.3-38.05,162.27-38.05,32.3,0,65.07,4.24,97.37,12.6,124.14,32.13,221.46,129.15,253.98,253.19,29.77,113.57,6.88,230.5-62.8,320.8-33.32,43.18-76.62,78.91-125.21,103.34-50.95,25.61-105.91,38.59-163.35,38.59ZM2686.51,6855.31c-27.76,0-54.35,6.23-79.04,18.52-57.66,28.72-95.33,86.44-98.32,150.64-.13,2.86-.2,5.68-.2,8.39s.07,5.58.2,8.46c.52,11.14,2.1,22.29,4.7,33.14,9.15,38.1,31.15,72.63,61.94,97.22,31.73,25.33,70.01,38.72,110.71,38.72,17.12,0,34.46-2.44,51.54-7.25,57.96-16.33,102.34-60.69,118.71-118.65,15.8-55.94,5.38-113.78-28.59-158.67-33.91-44.81-85.54-70.51-141.66-70.51Z"/>
    </g>
    <g>
      <path class="cls-7" d="M3172.96,7378.74c-7.78,0-14.1-6.33-14.1-14.1v-597.63c0-7.78,6.33-14.1,14.1-14.1h160.06c7.78,0,14.1,6.33,14.1,14.1v597.63c0,7.78-6.33,14.1-14.1,14.1h-160.06ZM3252.99,6688.46c-55.13,0-99.98-44.85-99.98-99.98s44.85-99.98,99.98-99.98,99.98,44.85,99.98,99.98-44.85,99.98-99.98,99.98Z"/>
      <path class="cls-7" d="M3774.76,7397.12c-145.6,0-232.52-92.08-232.52-246.31v-225.31c0-9.72-7.91-17.63-17.63-17.63h-58.99c-7.78,0-14.1-6.33-14.1-14.1v-126.75c0-7.78,6.33-14.1,14.1-14.1h58.99c9.72,0,17.63-7.91,17.63-17.63v-143.98c0-7.78,6.33-14.1,14.1-14.1h158.91c7.78,0,14.1,6.33,14.1,14.1v143.98c0,9.72,7.91,17.63,17.63,17.63h108.38c7.78,0,14.1,6.33,14.1,14.1v126.75c0,7.78-6.33,14.1-14.1,14.1h-108.38c-9.72,0-17.63,7.91-17.63,17.63v219.57c0,52.94,29.53,83.31,81.01,83.31,12.73,0,28.33-1.87,41.72-5.02,1.08-.26,2.19-.38,3.28-.38,7.78,0,14.1,6.32,14.1,14.09v133.15c0,5.81-3.6,11.09-8.97,13.14-22.25,8.49-55.1,13.76-85.74,13.76Z"/>
      <path class="cls-7" d="M4294.28,7397.12c-145.6,0-232.52-92.08-232.52-246.31v-225.31c0-9.72-7.91-17.63-17.63-17.63h-58.99c-7.78,0-14.1-6.33-14.1-14.1v-126.75c0-7.78,6.33-14.1,14.1-14.1h58.99c9.72,0,17.63-7.91,17.63-17.63v-143.98c0-7.78,6.33-14.1,14.1-14.1h158.91c7.78,0,14.1,6.33,14.1,14.1v143.98c0,9.72,7.91,17.63,17.63,17.63h108.37c7.78,0,14.1,6.33,14.1,14.1v126.75c0,7.78-6.33,14.1-14.1,14.1h-108.37c-9.72,0-17.63,7.91-17.63,17.63v219.57c0,52.94,29.53,83.31,81.01,83.31,12.73,0,28.32-1.87,41.71-5.01,1.08-.26,2.19-.38,3.29-.38,7.78,0,14.1,6.32,14.1,14.09v133.15c0,5.81-3.6,11.09-8.97,13.14-22.25,8.49-55.1,13.76-85.74,13.76Z"/>
      <path class="cls-7" d="M4647.45,7625.66c-43.16,0-88.34-10.25-112.44-25.51-4-2.53-6.39-6.95-6.39-11.81v-123.51c0-7.79,6.31-14.13,14.07-14.13,1.87,0,3.72.38,5.49,1.13,23.13,9.8,52.2,15.42,79.74,15.42,38.98,0,74.26-15.04,99.35-42.35,4.47-4.87,5.81-12.02,3.42-18.23l-244.41-634.6c-1.7-4.4-1.14-9.16,1.53-13.05,2.67-3.89,6.91-6.12,11.63-6.12h160.68c6.08,0,11.46,3.88,13.38,9.64l127.3,381.91c2.44,7.32,9.01,12.06,16.73,12.06s14.24-4.7,16.7-11.98l129.35-382.05c1.94-5.73,7.31-9.58,13.36-9.58h157.45c4.7,0,8.93,2.22,11.6,6.09s3.25,8.61,1.59,13.01l-250.28,661.86c-24.02,63.87-59.46,113.01-105.33,146.05-41.55,29.93-91.52,45.75-144.53,45.75Z"/>
      <path class="cls-7" d="M2686.51,7397.12c-70.35,0-138.62-20.09-197.44-58.09-57.29-37.02-102.95-89.1-132.04-150.62-10.63-22.49-18.96-46.11-24.74-70.2-6.67-27.77-10.06-56.49-10.06-85.35v-566.13c0-7.78,6.33-14.1,14.1-14.1h158.71c7.78,0,14.1,6.33,14.1,14.1v230.57c0,2.86,1.12,5.52,3.17,7.49,1.94,1.87,4.59,2.95,7.26,2.95,1.61,0,3.18-.37,4.65-1.11,50.74-25.27,105.3-38.05,162.27-38.05,32.3,0,65.07,4.24,97.37,12.6,124.14,32.13,221.46,129.15,253.98,253.19,29.77,113.57,6.88,230.5-62.8,320.8-33.32,43.18-76.62,78.91-125.21,103.34-50.95,25.61-105.91,38.59-163.35,38.59ZM2686.51,6855.31c-27.76,0-54.35,6.23-79.04,18.52-57.66,28.72-95.33,86.44-98.32,150.64-.13,2.86-.2,5.68-.2,8.39s.07,5.58.2,8.46c.52,11.14,2.1,22.29,4.7,33.14,9.15,38.1,31.15,72.63,61.94,97.22,31.73,25.33,70.01,38.72,110.71,38.72,17.12,0,34.46-2.44,51.54-7.25,57.96-16.33,102.34-60.69,118.71-118.65,15.8-55.94,5.38-113.78-28.59-158.67-33.91-44.81-85.54-70.51-141.66-70.51Z"/>
    </g>
    <g>
      <path class="cls-6" d="M3172.96,7378.74c-7.78,0-14.1-6.33-14.1-14.1v-597.63c0-7.78,6.33-14.1,14.1-14.1h160.06c7.78,0,14.1,6.33,14.1,14.1v597.63c0,7.78-6.33,14.1-14.1,14.1h-160.06ZM3252.99,6688.46c-55.13,0-99.98-44.85-99.98-99.98s44.85-99.98,99.98-99.98,99.98,44.85,99.98,99.98-44.85,99.98-99.98,99.98Z"/>
      <path class="cls-6" d="M3774.76,7397.12c-145.6,0-232.52-92.08-232.52-246.31v-225.31c0-9.72-7.91-17.63-17.63-17.63h-58.99c-7.78,0-14.1-6.33-14.1-14.1v-126.75c0-7.78,6.33-14.1,14.1-14.1h58.99c9.72,0,17.63-7.91,17.63-17.63v-143.98c0-7.78,6.33-14.1,14.1-14.1h158.91c7.78,0,14.1,6.33,14.1,14.1v143.98c0,9.72,7.91,17.63,17.63,17.63h108.38c7.78,0,14.1,6.33,14.1,14.1v126.75c0,7.78-6.33,14.1-14.1,14.1h-108.38c-9.72,0-17.63,7.91-17.63,17.63v219.57c0,52.94,29.53,83.31,81.01,83.31,12.73,0,28.33-1.87,41.72-5.02,1.08-.26,2.19-.38,3.28-.38,7.78,0,14.1,6.32,14.1,14.09v133.15c0,5.81-3.6,11.09-8.97,13.14-22.25,8.49-55.1,13.76-85.74,13.76Z"/>
      <path class="cls-6" d="M4294.28,7397.12c-145.6,0-232.52-92.08-232.52-246.31v-225.31c0-9.72-7.91-17.63-17.63-17.63h-58.99c-7.78,0-14.1-6.33-14.1-14.1v-126.75c0-7.78,6.33-14.1,14.1-14.1h58.99c9.72,0,17.63-7.91,17.63-17.63v-143.98c0-7.78,6.33-14.1,14.1-14.1h158.91c7.78,0,14.1,6.33,14.1,14.1v143.98c0,9.72,7.91,17.63,17.63,17.63h108.37c7.78,0,14.1,6.33,14.1,14.1v126.75c0,7.78-6.33,14.1-14.1,14.1h-108.37c-9.72,0-17.63,7.91-17.63,17.63v219.57c0,52.94,29.53,83.31,81.01,83.31,12.73,0,28.32-1.87,41.71-5.01,1.08-.26,2.19-.38,3.29-.38,7.78,0,14.1,6.32,14.1,14.09v133.15c0,5.81-3.6,11.09-8.97,13.14-22.25,8.49-55.1,13.76-85.74,13.76Z"/>
      <path class="cls-6" d="M4647.45,7625.66c-43.16,0-88.34-10.25-112.44-25.51-4-2.53-6.39-6.95-6.39-11.81v-123.51c0-7.79,6.31-14.13,14.07-14.13,1.87,0,3.72.38,5.49,1.13,23.13,9.8,52.2,15.42,79.74,15.42,38.98,0,74.26-15.04,99.35-42.35,4.47-4.87,5.81-12.02,3.42-18.23l-244.41-634.6c-1.7-4.4-1.14-9.16,1.53-13.05,2.67-3.89,6.91-6.12,11.63-6.12h160.68c6.08,0,11.46,3.88,13.38,9.64l127.3,381.91c2.44,7.32,9.01,12.06,16.73,12.06s14.24-4.7,16.7-11.98l129.35-382.05c1.94-5.73,7.31-9.58,13.36-9.58h157.45c4.7,0,8.93,2.22,11.6,6.09s3.25,8.61,1.59,13.01l-250.28,661.86c-24.02,63.87-59.46,113.01-105.33,146.05-41.55,29.93-91.52,45.75-144.53,45.75Z"/>
      <path class="cls-6" d="M2686.51,7397.12c-70.35,0-138.62-20.09-197.44-58.09-57.29-37.02-102.95-89.1-132.04-150.62-10.63-22.49-18.96-46.11-24.74-70.2-6.67-27.77-10.06-56.49-10.06-85.35v-566.13c0-7.78,6.33-14.1,14.1-14.1h158.71c7.78,0,14.1,6.33,14.1,14.1v230.57c0,2.86,1.12,5.52,3.17,7.49,1.94,1.87,4.59,2.95,7.26,2.95,1.61,0,3.18-.37,4.65-1.11,50.74-25.27,105.3-38.05,162.27-38.05,32.3,0,65.07,4.24,97.37,12.6,124.14,32.13,221.46,129.15,253.98,253.19,29.77,113.57,6.88,230.5-62.8,320.8-33.32,43.18-76.62,78.91-125.21,103.34-50.95,25.61-105.91,38.59-163.35,38.59ZM2686.51,6855.31c-27.76,0-54.35,6.23-79.04,18.52-57.66,28.72-95.33,86.44-98.32,150.64-.13,2.86-.2,5.68-.2,8.39s.07,5.58.2,8.46c.52,11.14,2.1,22.29,4.7,33.14,9.15,38.1,31.15,72.63,61.94,97.22,31.73,25.33,70.01,38.72,110.71,38.72,17.12,0,34.46-2.44,51.54-7.25,57.96-16.33,102.34-60.69,118.71-118.65,15.8-55.94,5.38-113.78-28.59-158.67-33.91-44.81-85.54-70.51-141.66-70.51Z"/>
    </g>
    <g>
      <path class="cls-6" d="M3172.96,7378.74c-7.78,0-14.1-6.33-14.1-14.1v-597.63c0-7.78,6.33-14.1,14.1-14.1h160.06c7.78,0,14.1,6.33,14.1,14.1v597.63c0,7.78-6.33,14.1-14.1,14.1h-160.06ZM3252.99,6688.46c-55.13,0-99.98-44.85-99.98-99.98s44.85-99.98,99.98-99.98,99.98,44.85,99.98,99.98-44.85,99.98-99.98,99.98Z"/>
      <path class="cls-6" d="M3774.76,7397.12c-145.6,0-232.52-92.08-232.52-246.31v-225.31c0-9.72-7.91-17.63-17.63-17.63h-58.99c-7.78,0-14.1-6.33-14.1-14.1v-126.75c0-7.78,6.33-14.1,14.1-14.1h58.99c9.72,0,17.63-7.91,17.63-17.63v-143.98c0-7.78,6.33-14.1,14.1-14.1h158.91c7.78,0,14.1,6.33,14.1,14.1v143.98c0,9.72,7.91,17.63,17.63,17.63h108.38c7.78,0,14.1,6.33,14.1,14.1v126.75c0,7.78-6.33,14.1-14.1,14.1h-108.38c-9.72,0-17.63,7.91-17.63,17.63v219.57c0,52.94,29.53,83.31,81.01,83.31,12.73,0,28.33-1.87,41.72-5.02,1.08-.26,2.19-.38,3.28-.38,7.78,0,14.1,6.32,14.1,14.09v133.15c0,5.81-3.6,11.09-8.97,13.14-22.25,8.49-55.1,13.76-85.74,13.76Z"/>
      <path class="cls-6" d="M4294.28,7397.12c-145.6,0-232.52-92.08-232.52-246.31v-225.31c0-9.72-7.91-17.63-17.63-17.63h-58.99c-7.78,0-14.1-6.33-14.1-14.1v-126.75c0-7.78,6.33-14.1,14.1-14.1h58.99c9.72,0,17.63-7.91,17.63-17.63v-143.98c0-7.78,6.33-14.1,14.1-14.1h158.91c7.78,0,14.1,6.33,14.1,14.1v143.98c0,9.72,7.91,17.63,17.63,17.63h108.37c7.78,0,14.1,6.33,14.1,14.1v126.75c0,7.78-6.33,14.1-14.1,14.1h-108.37c-9.72,0-17.63,7.91-17.63,17.63v219.57c0,52.94,29.53,83.31,81.01,83.31,12.73,0,28.32-1.87,41.71-5.01,1.08-.26,2.19-.38,3.29-.38,7.78,0,14.1,6.32,14.1,14.09v133.15c0,5.81-3.6,11.09-8.97,13.14-22.25,8.49-55.1,13.76-85.74,13.76Z"/>
      <path class="cls-6" d="M4647.45,7625.66c-43.16,0-88.34-10.25-112.44-25.51-4-2.53-6.39-6.95-6.39-11.81v-123.51c0-7.79,6.31-14.13,14.07-14.13,1.87,0,3.72.38,5.49,1.13,23.13,9.8,52.2,15.42,79.74,15.42,38.98,0,74.26-15.04,99.35-42.35,4.47-4.87,5.81-12.02,3.42-18.23l-244.41-634.6c-1.7-4.4-1.14-9.16,1.53-13.05,2.67-3.89,6.91-6.12,11.63-6.12h160.68c6.08,0,11.46,3.88,13.38,9.64l127.3,381.91c2.44,7.32,9.01,12.06,16.73,12.06s14.24-4.7,16.7-11.98l129.35-382.05c1.94-5.73,7.31-9.58,13.36-9.58h157.45c4.7,0,8.93,2.22,11.6,6.09s3.25,8.61,1.59,13.01l-250.28,661.86c-24.02,63.87-59.46,113.01-105.33,146.05-41.55,29.93-91.52,45.75-144.53,45.75Z"/>
      <path class="cls-6" d="M2686.51,7397.12c-70.35,0-138.62-20.09-197.44-58.09-57.29-37.02-102.95-89.1-132.04-150.62-10.63-22.49-18.96-46.11-24.74-70.2-6.67-27.77-10.06-56.49-10.06-85.35v-566.13c0-7.78,6.33-14.1,14.1-14.1h158.71c7.78,0,14.1,6.33,14.1,14.1v230.57c0,2.86,1.12,5.52,3.17,7.49,1.94,1.87,4.59,2.95,7.26,2.95,1.61,0,3.18-.37,4.65-1.11,50.74-25.27,105.3-38.05,162.27-38.05,32.3,0,65.07,4.24,97.37,12.6,124.14,32.13,221.46,129.15,253.98,253.19,29.77,113.57,6.88,230.5-62.8,320.8-33.32,43.18-76.62,78.91-125.21,103.34-50.95,25.61-105.91,38.59-163.35,38.59ZM2686.51,6855.31c-27.76,0-54.35,6.23-79.04,18.52-57.66,28.72-95.33,86.44-98.32,150.64-.13,2.86-.2,5.68-.2,8.39s.07,5.58.2,8.46c.52,11.14,2.1,22.29,4.7,33.14,9.15,38.1,31.15,72.63,61.94,97.22,31.73,25.33,70.01,38.72,110.71,38.72,17.12,0,34.46-2.44,51.54-7.25,57.96-16.33,102.34-60.69,118.71-118.65,15.8-55.94,5.38-113.78-28.59-158.67-33.91-44.81-85.54-70.51-141.66-70.51Z"/>
    </g>
  </g>
  <g id="_图层_4" data-name="图层 4">
    <g id="Bitty_blue" data-name="Bitty blue">
      <path class="cls-6" d="M3162.25,4532.39c-7.78,0-14.1-6.33-14.1-14.1v-597.63c0-7.78,6.33-14.1,14.1-14.1h160.06c7.78,0,14.1,6.33,14.1,14.1v597.63c0,7.78-6.33,14.1-14.1,14.1h-160.06ZM3242.28,3842.11c-55.13,0-99.98-44.85-99.98-99.98s44.85-99.98,99.98-99.98,99.98,44.85,99.98,99.98-44.85,99.98-99.98,99.98Z"/>
      <path class="cls-6" d="M3764.05,4550.77c-145.6,0-232.52-92.08-232.52-246.31v-225.31c0-9.72-7.91-17.63-17.63-17.63h-58.99c-7.78,0-14.1-6.33-14.1-14.1v-126.75c0-7.78,6.33-14.1,14.1-14.1h58.99c9.72,0,17.63-7.91,17.63-17.63v-143.98c0-7.78,6.33-14.1,14.1-14.1h158.91c7.78,0,14.1,6.33,14.1,14.1v143.98c0,9.72,7.91,17.63,17.63,17.63h108.38c7.78,0,14.1,6.33,14.1,14.1v126.75c0,7.78-6.33,14.1-14.1,14.1h-108.38c-9.72,0-17.63,7.91-17.63,17.63v219.57c0,52.94,29.53,83.31,81.01,83.31,12.73,0,28.33-1.87,41.72-5.02,1.08-.26,2.19-.38,3.28-.38,7.78,0,14.1,6.32,14.1,14.09v133.15c0,5.81-3.6,11.09-8.97,13.14-22.25,8.49-55.1,13.76-85.74,13.76Z"/>
      <path class="cls-6" d="M4283.57,4550.77c-145.6,0-232.52-92.08-232.52-246.31v-225.31c0-9.72-7.91-17.63-17.63-17.63h-58.99c-7.78,0-14.1-6.33-14.1-14.1v-126.75c0-7.78,6.33-14.1,14.1-14.1h58.99c9.72,0,17.63-7.91,17.63-17.63v-143.98c0-7.78,6.33-14.1,14.1-14.1h158.91c7.78,0,14.1,6.33,14.1,14.1v143.98c0,9.72,7.91,17.63,17.63,17.63h108.37c7.78,0,14.1,6.33,14.1,14.1v126.75c0,7.78-6.33,14.1-14.1,14.1h-108.37c-9.72,0-17.63,7.91-17.63,17.63v219.57c0,52.94,29.53,83.31,81.01,83.31,12.73,0,28.32-1.87,41.71-5.01,1.08-.26,2.19-.38,3.29-.38,7.78,0,14.1,6.32,14.1,14.09v133.15c0,5.81-3.6,11.09-8.97,13.14-22.25,8.49-55.1,13.76-85.74,13.76Z"/>
      <path class="cls-6" d="M4636.74,4779.31c-43.16,0-88.34-10.25-112.44-25.51-4-2.53-6.39-6.95-6.39-11.81v-123.51c0-7.79,6.31-14.13,14.07-14.13,1.87,0,3.72.38,5.49,1.13,23.13,9.8,52.2,15.42,79.74,15.42,38.98,0,74.26-15.04,99.35-42.35,4.47-4.87,5.81-12.02,3.42-18.23l-244.41-634.6c-1.7-4.4-1.14-9.16,1.53-13.05,2.67-3.89,6.91-6.12,11.63-6.12h160.68c6.08,0,11.46,3.88,13.38,9.64l127.3,381.91c2.44,7.32,9.01,12.06,16.73,12.06s14.24-4.7,16.7-11.98l129.35-382.05c1.94-5.73,7.31-9.58,13.36-9.58h157.45c4.7,0,8.93,2.22,11.6,6.09,2.67,3.87,3.25,8.61,1.59,13.01l-250.28,661.86c-24.02,63.87-59.46,113.01-105.33,146.05-41.55,29.93-91.52,45.75-144.53,45.75Z"/>
      <path class="cls-6" d="M3029.32,4259.35c0,154.94-84.05,282.55-323.47,281.02-107.88-.69-368.88-.17-402.86-.67-7.19-.11-13.39-5.58-13.86-12.76-.02-.31-.03-.63-.03-.94v-854.1c0-11.05,8.95-20,20-20h371.26c175.07,0,272.59,89.3,272.59,220.89,0,60.76-32.69,121.52-76.42,155.63-6.16,4.81-4.56,14.57,2.8,17.22,80.35,28.9,149.99,102.64,149.99,213.71ZM2654.51,3818.74h-154.19c-8.28,0-15,6.72-15,15v145.07c0,8.28,6.72,15,15,15h156.54c70.5,0,99.87-41.12,99.87-88.12s-29.37-86.95-102.22-86.95ZM2823.7,4260c0-55.91-37.6-109.92-123.37-109.92h-200.02c-8.28,0-15,6.72-15,15v194.48c0,6.15,4.22,11.52,10.22,12.91,0,0,162.76.11,202.96.11,83.58,0,125.21-47.35,125.21-112.58Z"/>
    </g>
    <g id="solid-2" data-name="solid">
      <g id="symbol-5" data-name="symbol">
        <g class="cls-10">
          <circle id="bg_gradient_blue-5" data-name="bg_gradient blue" class="cls-6" cx="1510.53" cy="4122.47" r="933.34"/>
        </g>
      </g>
    </g>
  </g>
  <g id="_16px" data-name="16px">
    <g>
      <path class="cls-5" d="M142.06,2831.95s-.04-.02-.04-.04v-1.64s.02-.04.04-.04h.44s.04.02.04.04v1.64s-.02.04-.04.04h-.44ZM142.28,2830.06c-.15,0-.27-.12-.27-.27s.12-.27.27-.27.27.12.27.27-.12.27-.27.27Z"/>
      <path class="cls-5" d="M143.71,2832c-.4,0-.64-.25-.64-.68v-.62s-.02-.05-.05-.05h-.16s-.04-.02-.04-.04v-.35s.02-.04.04-.04h.16s.05-.02.05-.05v-.4s.02-.04.04-.04h.44s.04.02.04.04v.4s.02.05.05.05h.3s.04.02.04.04v.35s-.02.04-.04.04h-.3s-.05.02-.05.05v.6c0,.15.08.23.22.23.03,0,.08,0,.11-.01,0,0,0,0,0,0,.02,0,.04.02.04.04v.37s0,.03-.02.04c-.06.02-.15.04-.24.04Z"/>
      <path class="cls-5" d="M145.14,2832c-.4,0-.64-.25-.64-.68v-.62s-.02-.05-.05-.05h-.16s-.04-.02-.04-.04v-.35s.02-.04.04-.04h.16s.05-.02.05-.05v-.4s.02-.04.04-.04h.44s.04.02.04.04v.4s.02.05.05.05h.3s.04.02.04.04v.35s-.02.04-.04.04h-.3s-.05.02-.05.05v.6c0,.15.08.23.22.23.03,0,.08,0,.11-.01,0,0,0,0,0,0,.02,0,.04.02.04.04v.37s0,.03-.02.04c-.06.02-.15.04-.24.04Z"/>
      <path class="cls-5" d="M146.11,2832.63c-.12,0-.24-.03-.31-.07-.01,0-.02-.02-.02-.03v-.34s.02-.04.04-.04c0,0,.01,0,.02,0,.06.03.14.04.22.04.11,0,.2-.04.27-.12.01-.01.02-.03,0-.05l-.67-1.74s0-.03,0-.04.02-.02.03-.02h.44s.03.01.04.03l.35,1.05s.02.03.05.03.04-.01.05-.03l.36-1.05s.02-.03.04-.03h.43s.02,0,.03.02,0,.02,0,.04l-.69,1.82c-.07.18-.16.31-.29.4-.11.08-.25.13-.4.13Z"/>
      <path class="cls-5" d="M141.7,2831.2c0,.43-.23.78-.89.77-.3,0-1.01,0-1.11,0-.02,0-.04-.02-.04-.04,0,0,0,0,0,0v-2.35s.02-.05.05-.05h1.02c.48,0,.75.25.75.61,0,.17-.09.33-.21.43-.02.01-.01.04,0,.05.22.08.41.28.41.59ZM140.67,2829.99h-.42s-.04.02-.04.04v.4s.02.04.04.04h.43c.19,0,.27-.11.27-.24s-.08-.24-.28-.24ZM141.13,2831.21c0-.15-.1-.3-.34-.3h-.55s-.04.02-.04.04v.53s.01.03.03.04c0,0,.45,0,.56,0,.23,0,.34-.13.34-.31Z"/>
    </g>
    <g id="black-2" data-name="black">
      <g id="symbol-6" data-name="symbol">
        <g class="cls-16">
          <circle id="bg_gradient_blue-6" data-name="bg_gradient blue" class="cls-5" cx="137.53" cy="2830.83" r="2.56"/>
        </g>
      </g>
    </g>
    <g>
      <path class="cls-7" d="M142.06,2831.95s-.04-.02-.04-.04v-1.64s.02-.04.04-.04h.44s.04.02.04.04v1.64s-.02.04-.04.04h-.44ZM142.28,2830.06c-.15,0-.27-.12-.27-.27s.12-.27.27-.27.27.12.27.27-.12.27-.27.27Z"/>
      <path class="cls-7" d="M143.71,2832c-.4,0-.64-.25-.64-.68v-.62s-.02-.05-.05-.05h-.16s-.04-.02-.04-.04v-.35s.02-.04.04-.04h.16s.05-.02.05-.05v-.4s.02-.04.04-.04h.44s.04.02.04.04v.4s.02.05.05.05h.3s.04.02.04.04v.35s-.02.04-.04.04h-.3s-.05.02-.05.05v.6c0,.15.08.23.22.23.03,0,.08,0,.11-.01,0,0,0,0,0,0,.02,0,.04.02.04.04v.37s0,.03-.02.04c-.06.02-.15.04-.24.04Z"/>
      <path class="cls-7" d="M145.14,2832c-.4,0-.64-.25-.64-.68v-.62s-.02-.05-.05-.05h-.16s-.04-.02-.04-.04v-.35s.02-.04.04-.04h.16s.05-.02.05-.05v-.4s.02-.04.04-.04h.44s.04.02.04.04v.4s.02.05.05.05h.3s.04.02.04.04v.35s-.02.04-.04.04h-.3s-.05.02-.05.05v.6c0,.15.08.23.22.23.03,0,.08,0,.11-.01,0,0,0,0,0,0,.02,0,.04.02.04.04v.37s0,.03-.02.04c-.06.02-.15.04-.24.04Z"/>
      <path class="cls-7" d="M146.11,2832.63c-.12,0-.24-.03-.31-.07-.01,0-.02-.02-.02-.03v-.34s.02-.04.04-.04c0,0,.01,0,.02,0,.06.03.14.04.22.04.11,0,.2-.04.27-.12.01-.01.02-.03,0-.05l-.67-1.74s0-.03,0-.04.02-.02.03-.02h.44s.03.01.04.03l.35,1.05s.02.03.05.03.04-.01.05-.03l.36-1.05s.02-.03.04-.03h.43s.02,0,.03.02,0,.02,0,.04l-.69,1.82c-.07.18-.16.31-.29.4-.11.08-.25.13-.4.13Z"/>
      <path class="cls-7" d="M141.7,2831.2c0,.43-.23.78-.89.77-.3,0-1.01,0-1.11,0-.02,0-.04-.02-.04-.04,0,0,0,0,0,0v-2.35s.02-.05.05-.05h1.02c.48,0,.75.25.75.61,0,.17-.09.33-.21.43-.02.01-.01.04,0,.05.22.08.41.28.41.59ZM140.67,2829.99h-.42s-.04.02-.04.04v.4s.02.04.04.04h.43c.19,0,.27-.11.27-.24s-.08-.24-.28-.24ZM141.13,2831.21c0-.15-.1-.3-.34-.3h-.55s-.04.02-.04.04v.53s.01.03.03.04c0,0,.45,0,.56,0,.23,0,.34-.13.34-.31Z"/>
    </g>
    <g id="white-2" data-name="white">
      <g id="symbol-7" data-name="symbol">
        <g class="cls-15">
          <circle id="bg_gradient_blue-7" data-name="bg_gradient blue" class="cls-7" cx="137.53" cy="2830.83" r="2.56"/>
        </g>
      </g>
    </g>
    <g>
      <path class="cls-6" d="M142.06,2831.95s-.04-.02-.04-.04v-1.64s.02-.04.04-.04h.44s.04.02.04.04v1.64s-.02.04-.04.04h-.44ZM142.28,2830.06c-.15,0-.27-.12-.27-.27s.12-.27.27-.27.27.12.27.27-.12.27-.27.27Z"/>
      <path class="cls-6" d="M143.71,2832c-.4,0-.64-.25-.64-.68v-.62s-.02-.05-.05-.05h-.16s-.04-.02-.04-.04v-.35s.02-.04.04-.04h.16s.05-.02.05-.05v-.4s.02-.04.04-.04h.44s.04.02.04.04v.4s.02.05.05.05h.3s.04.02.04.04v.35s-.02.04-.04.04h-.3s-.05.02-.05.05v.6c0,.15.08.23.22.23.03,0,.08,0,.11-.01,0,0,0,0,0,0,.02,0,.04.02.04.04v.37s0,.03-.02.04c-.06.02-.15.04-.24.04Z"/>
      <path class="cls-6" d="M145.14,2832c-.4,0-.64-.25-.64-.68v-.62s-.02-.05-.05-.05h-.16s-.04-.02-.04-.04v-.35s.02-.04.04-.04h.16s.05-.02.05-.05v-.4s.02-.04.04-.04h.44s.04.02.04.04v.4s.02.05.05.05h.3s.04.02.04.04v.35s-.02.04-.04.04h-.3s-.05.02-.05.05v.6c0,.15.08.23.22.23.03,0,.08,0,.11-.01,0,0,0,0,0,0,.02,0,.04.02.04.04v.37s0,.03-.02.04c-.06.02-.15.04-.24.04Z"/>
      <path class="cls-6" d="M146.11,2832.63c-.12,0-.24-.03-.31-.07-.01,0-.02-.02-.02-.03v-.34s.02-.04.04-.04c0,0,.01,0,.02,0,.06.03.14.04.22.04.11,0,.2-.04.27-.12.01-.01.02-.03,0-.05l-.67-1.74s0-.03,0-.04.02-.02.03-.02h.44s.03.01.04.03l.35,1.05s.02.03.05.03.04-.01.05-.03l.36-1.05s.02-.03.04-.03h.43s.02,0,.03.02,0,.02,0,.04l-.69,1.82c-.07.18-.16.31-.29.4-.11.08-.25.13-.4.13Z"/>
      <path class="cls-6" d="M141.7,2831.2c0,.43-.23.78-.89.77-.3,0-1.01,0-1.11,0-.02,0-.04-.02-.04-.04,0,0,0,0,0,0v-2.35s.02-.05.05-.05h1.02c.48,0,.75.25.75.61,0,.17-.09.33-.21.43-.02.01-.01.04,0,.05.22.08.41.28.41.59ZM140.67,2829.99h-.42s-.04.02-.04.04v.4s.02.04.04.04h.43c.19,0,.27-.11.27-.24s-.08-.24-.28-.24ZM141.13,2831.21c0-.15-.1-.3-.34-.3h-.55s-.04.02-.04.04v.53s.01.03.03.04c0,0,.45,0,.56,0,.23,0,.34-.13.34-.31Z"/>
    </g>
    <g id="solid-3" data-name="solid">
      <g id="symbol-8" data-name="symbol">
        <g class="cls-13">
          <circle id="bg_gradient_blue-8" data-name="bg_gradient blue" class="cls-6" cx="137.53" cy="2830.83" r="2.56"/>
        </g>
      </g>
    </g>
    <g id="blue-2" data-name="blue">
      <g id="symbol-9" data-name="symbol">
        <g class="cls-14">
          <circle id="bg_gradient_blue-9" data-name="bg_gradient blue" class="cls-3" cx="137.53" cy="2830.83" r="2.56"/>
        </g>
      </g>
    </g>
  </g>
  <g id="_20px" data-name="20px">
    <g>
      <path class="cls-6" d="M165.48,2834.18s-.05-.02-.05-.05v-2.04s.02-.05.05-.05h.55s.05.02.05.05v2.04s-.02.05-.05.05h-.55ZM165.75,2831.82c-.19,0-.34-.15-.34-.34s.15-.34.34-.34.34.15.34.34-.15.34-.34.34Z"/>
      <path class="cls-6" d="M167.53,2834.25c-.5,0-.8-.31-.8-.84v-.77s-.03-.06-.06-.06h-.2s-.05-.02-.05-.05v-.43s.02-.05.05-.05h.2s.06-.03.06-.06v-.49s.02-.05.05-.05h.54s.05.02.05.05v.49s.03.06.06.06h.37s.05.02.05.05v.43s-.02.05-.05.05h-.37s-.06.03-.06.06v.75c0,.18.1.28.28.28.04,0,.1,0,.14-.02,0,0,0,0,.01,0,.03,0,.05.02.05.05v.46s-.01.04-.03.04c-.08.03-.19.05-.29.05Z"/>
      <path class="cls-6" d="M169.31,2834.25c-.5,0-.8-.31-.8-.84v-.77s-.03-.06-.06-.06h-.2s-.05-.02-.05-.05v-.43s.02-.05.05-.05h.2s.06-.03.06-.06v-.49s.02-.05.05-.05h.54s.05.02.05.05v.49s.03.06.06.06h.37s.05.02.05.05v.43s-.02.05-.05.05h-.37s-.06.03-.06.06v.75c0,.18.1.28.28.28.04,0,.1,0,.14-.02,0,0,0,0,.01,0,.03,0,.05.02.05.05v.46s-.01.04-.03.04c-.08.03-.19.05-.29.05Z"/>
      <path class="cls-6" d="M170.52,2835.03c-.15,0-.3-.04-.38-.09-.01,0-.02-.02-.02-.04v-.42s.02-.05.05-.05c0,0,.01,0,.02,0,.08.03.18.05.27.05.13,0,.25-.05.34-.14.02-.02.02-.04.01-.06l-.84-2.17s0-.03,0-.04.02-.02.04-.02h.55s.04.01.05.03l.44,1.31s.03.04.06.04.05-.02.06-.04l.44-1.31s.03-.03.05-.03h.54s.03,0,.04.02.01.03,0,.04l-.86,2.26c-.08.22-.2.39-.36.5-.14.1-.31.16-.49.16Z"/>
      <path class="cls-6" d="M165.02,2833.25c0,.53-.29.97-1.11.96-.37,0-1.26,0-1.38,0-.02,0-.05-.02-.05-.04,0,0,0,0,0,0v-2.92s.03-.07.07-.07h1.27c.6,0,.93.31.93.76,0,.21-.11.42-.26.53-.02.02-.02.05,0,.06.27.1.51.35.51.73ZM163.74,2831.74h-.53s-.05.02-.05.05v.5s.02.05.05.05h.54c.24,0,.34-.14.34-.3s-.1-.3-.35-.3ZM164.32,2833.25c0-.19-.13-.38-.42-.38h-.68s-.05.02-.05.05v.67s.01.04.03.04c0,0,.56,0,.69,0,.29,0,.43-.16.43-.39Z"/>
    </g>
    <g id="solid-4" data-name="solid">
      <g id="symbol-10" data-name="symbol">
        <g class="cls-17">
          <circle id="bg_gradient_blue-10" data-name="bg_gradient blue" class="cls-6" cx="159.83" cy="2832.78" r="3.19"/>
        </g>
      </g>
    </g>
  </g>
  <g id="_32px" data-name="32px">
    <g>
      <path class="cls-5" d="M197.91,2840.87s-.08-.03-.08-.08v-3.27s.03-.08.08-.08h.87s.08.03.08.08v3.27s-.03.08-.08.08h-.87ZM198.35,2837.1c-.3,0-.55-.25-.55-.55s.25-.55.55-.55.55.25.55.55-.25.55-.55.55Z"/>
      <path class="cls-5" d="M201.2,2840.97c-.8,0-1.27-.5-1.27-1.35v-1.23c0-.05-.04-.1-.1-.1h-.32s-.08-.03-.08-.08v-.69s.03-.08.08-.08h.32c.05,0,.1-.04.1-.1v-.79s.03-.08.08-.08h.87s.08.03.08.08v.79c0,.05.04.1.1.1h.59s.08.03.08.08v.69s-.03.08-.08.08h-.59c-.05,0-.1.04-.1.1v1.2c0,.29.16.46.44.46.07,0,.15-.01.23-.03,0,0,.01,0,.02,0,.04,0,.08.03.08.08v.73s-.02.06-.05.07c-.12.05-.3.08-.47.08Z"/>
      <path class="cls-5" d="M204.04,2840.97c-.8,0-1.27-.5-1.27-1.35v-1.23c0-.05-.04-.1-.1-.1h-.32s-.08-.03-.08-.08v-.69s.03-.08.08-.08h.32c.05,0,.1-.04.1-.1v-.79s.03-.08.08-.08h.87s.08.03.08.08v.79c0,.05.04.1.1.1h.59s.08.03.08.08v.69s-.03.08-.08.08h-.59c-.05,0-.1.04-.1.1v1.2c0,.29.16.46.44.46.07,0,.15-.01.23-.03,0,0,.01,0,.02,0,.04,0,.08.03.08.08v.73s-.02.06-.05.07c-.12.05-.3.08-.47.08Z"/>
      <path class="cls-5" d="M205.97,2842.22c-.24,0-.48-.06-.61-.14-.02-.01-.03-.04-.03-.06v-.67s.03-.08.08-.08c.01,0,.02,0,.03,0,.13.05.29.08.44.08.21,0,.41-.08.54-.23.02-.03.03-.07.02-.1l-1.34-3.47s0-.05,0-.07.04-.03.06-.03h.88s.06.02.07.05l.7,2.09s.05.07.09.07.08-.03.09-.07l.71-2.09s.04-.05.07-.05h.86s.05.01.06.03.02.05,0,.07l-1.37,3.62c-.13.35-.32.62-.58.8-.23.16-.5.25-.79.25Z"/>
      <path class="cls-5" d="M197.19,2839.38c0,.85-.46,1.54-1.77,1.54-.59,0-2.02,0-2.2,0-.04,0-.07-.03-.08-.07,0,0,0,0,0,0v-4.67c0-.06.05-.11.11-.11h2.03c.96,0,1.49.49,1.49,1.21,0,.33-.18.66-.42.85-.03.03-.02.08.02.09.44.16.82.56.82,1.17ZM195.14,2836.98h-.84s-.08.04-.08.08v.79s.04.08.08.08h.86c.39,0,.55-.22.55-.48s-.16-.48-.56-.48ZM196.06,2839.39c0-.31-.21-.6-.67-.6h-1.09s-.08.04-.08.08v1.06s.02.06.06.07c0,0,.89,0,1.11,0,.46,0,.68-.26.68-.62Z"/>
    </g>
    <g id="black-3" data-name="black">
      <g id="symbol-11" data-name="symbol">
        <g class="cls-21">
          <circle id="bg_gradient_blue-11" data-name="bg_gradient blue" class="cls-5" cx="188.89" cy="2838.63" r="5.1"/>
        </g>
      </g>
    </g>
    <g>
      <path class="cls-7" d="M197.91,2840.87s-.08-.03-.08-.08v-3.27s.03-.08.08-.08h.87s.08.03.08.08v3.27s-.03.08-.08.08h-.87ZM198.35,2837.1c-.3,0-.55-.25-.55-.55s.25-.55.55-.55.55.25.55.55-.25.55-.55.55Z"/>
      <path class="cls-7" d="M201.2,2840.97c-.8,0-1.27-.5-1.27-1.35v-1.23c0-.05-.04-.1-.1-.1h-.32s-.08-.03-.08-.08v-.69s.03-.08.08-.08h.32c.05,0,.1-.04.1-.1v-.79s.03-.08.08-.08h.87s.08.03.08.08v.79c0,.05.04.1.1.1h.59s.08.03.08.08v.69s-.03.08-.08.08h-.59c-.05,0-.1.04-.1.1v1.2c0,.29.16.46.44.46.07,0,.15-.01.23-.03,0,0,.01,0,.02,0,.04,0,.08.03.08.08v.73s-.02.06-.05.07c-.12.05-.3.08-.47.08Z"/>
      <path class="cls-7" d="M204.04,2840.97c-.8,0-1.27-.5-1.27-1.35v-1.23c0-.05-.04-.1-.1-.1h-.32s-.08-.03-.08-.08v-.69s.03-.08.08-.08h.32c.05,0,.1-.04.1-.1v-.79s.03-.08.08-.08h.87s.08.03.08.08v.79c0,.05.04.1.1.1h.59s.08.03.08.08v.69s-.03.08-.08.08h-.59c-.05,0-.1.04-.1.1v1.2c0,.29.16.46.44.46.07,0,.15-.01.23-.03,0,0,.01,0,.02,0,.04,0,.08.03.08.08v.73s-.02.06-.05.07c-.12.05-.3.08-.47.08Z"/>
      <path class="cls-7" d="M205.97,2842.22c-.24,0-.48-.06-.61-.14-.02-.01-.03-.04-.03-.06v-.67s.03-.08.08-.08c.01,0,.02,0,.03,0,.13.05.29.08.44.08.21,0,.41-.08.54-.23.02-.03.03-.07.02-.1l-1.34-3.47s0-.05,0-.07.04-.03.06-.03h.88s.06.02.07.05l.7,2.09s.05.07.09.07.08-.03.09-.07l.71-2.09s.04-.05.07-.05h.86s.05.01.06.03.02.05,0,.07l-1.37,3.62c-.13.35-.32.62-.58.8-.23.16-.5.25-.79.25Z"/>
      <path class="cls-7" d="M197.19,2839.38c0,.85-.46,1.54-1.77,1.54-.59,0-2.02,0-2.2,0-.04,0-.07-.03-.08-.07,0,0,0,0,0,0v-4.67c0-.06.05-.11.11-.11h2.03c.96,0,1.49.49,1.49,1.21,0,.33-.18.66-.42.85-.03.03-.02.08.02.09.44.16.82.56.82,1.17ZM195.14,2836.98h-.84s-.08.04-.08.08v.79s.04.08.08.08h.86c.39,0,.55-.22.55-.48s-.16-.48-.56-.48ZM196.06,2839.39c0-.31-.21-.6-.67-.6h-1.09s-.08.04-.08.08v1.06s.02.06.06.07c0,0,.89,0,1.11,0,.46,0,.68-.26.68-.62Z"/>
    </g>
    <g id="white-3" data-name="white">
      <g id="symbol-12" data-name="symbol">
        <g class="cls-22">
          <circle id="bg_gradient_blue-12" data-name="bg_gradient blue" class="cls-7" cx="188.89" cy="2838.63" r="5.1"/>
        </g>
      </g>
    </g>
    <g>
      <path class="cls-6" d="M197.91,2840.87s-.08-.03-.08-.08v-3.27s.03-.08.08-.08h.87s.08.03.08.08v3.27s-.03.08-.08.08h-.87ZM198.35,2837.1c-.3,0-.55-.25-.55-.55s.25-.55.55-.55.55.25.55.55-.25.55-.55.55Z"/>
      <path class="cls-6" d="M201.2,2840.97c-.8,0-1.27-.5-1.27-1.35v-1.23c0-.05-.04-.1-.1-.1h-.32s-.08-.03-.08-.08v-.69s.03-.08.08-.08h.32c.05,0,.1-.04.1-.1v-.79s.03-.08.08-.08h.87s.08.03.08.08v.79c0,.05.04.1.1.1h.59s.08.03.08.08v.69s-.03.08-.08.08h-.59c-.05,0-.1.04-.1.1v1.2c0,.29.16.46.44.46.07,0,.15-.01.23-.03,0,0,.01,0,.02,0,.04,0,.08.03.08.08v.73s-.02.06-.05.07c-.12.05-.3.08-.47.08Z"/>
      <path class="cls-6" d="M204.04,2840.97c-.8,0-1.27-.5-1.27-1.35v-1.23c0-.05-.04-.1-.1-.1h-.32s-.08-.03-.08-.08v-.69s.03-.08.08-.08h.32c.05,0,.1-.04.1-.1v-.79s.03-.08.08-.08h.87s.08.03.08.08v.79c0,.05.04.1.1.1h.59s.08.03.08.08v.69s-.03.08-.08.08h-.59c-.05,0-.1.04-.1.1v1.2c0,.29.16.46.44.46.07,0,.15-.01.23-.03,0,0,.01,0,.02,0,.04,0,.08.03.08.08v.73s-.02.06-.05.07c-.12.05-.3.08-.47.08Z"/>
      <path class="cls-6" d="M205.97,2842.22c-.24,0-.48-.06-.61-.14-.02-.01-.03-.04-.03-.06v-.67s.03-.08.08-.08c.01,0,.02,0,.03,0,.13.05.29.08.44.08.21,0,.41-.08.54-.23.02-.03.03-.07.02-.1l-1.34-3.47s0-.05,0-.07.04-.03.06-.03h.88s.06.02.07.05l.7,2.09s.05.07.09.07.08-.03.09-.07l.71-2.09s.04-.05.07-.05h.86s.05.01.06.03.02.05,0,.07l-1.37,3.62c-.13.35-.32.62-.58.8-.23.16-.5.25-.79.25Z"/>
      <path class="cls-6" d="M197.19,2839.38c0,.85-.46,1.54-1.77,1.54-.59,0-2.02,0-2.2,0-.04,0-.07-.03-.08-.07,0,0,0,0,0,0v-4.67c0-.06.05-.11.11-.11h2.03c.96,0,1.49.49,1.49,1.21,0,.33-.18.66-.42.85-.03.03-.02.08.02.09.44.16.82.56.82,1.17ZM195.14,2836.98h-.84s-.08.04-.08.08v.79s.04.08.08.08h.86c.39,0,.55-.22.55-.48s-.16-.48-.56-.48ZM196.06,2839.39c0-.31-.21-.6-.67-.6h-1.09s-.08.04-.08.08v1.06s.02.06.06.07c0,0,.89,0,1.11,0,.46,0,.68-.26.68-.62Z"/>
    </g>
    <g id="solid-5" data-name="solid">
      <g id="symbol-13" data-name="symbol">
        <g class="cls-20">
          <circle id="bg_gradient_blue-13" data-name="bg_gradient blue" class="cls-6" cx="188.89" cy="2838.63" r="5.1"/>
        </g>
      </g>
    </g>
    <g id="blue-3" data-name="blue">
      <g id="symbol-14" data-name="symbol">
        <g class="cls-19">
          <circle id="bg_gradient_blue-14" data-name="bg_gradient blue" class="cls-4" cx="188.89" cy="2838.63" r="5.1"/>
        </g>
      </g>
    </g>
  </g>
  <g id="_44px" data-name="44px">
    <g>
      <path class="cls-6" d="M248.58,2847.48c-.06,0-.1-.05-.1-.1v-4.34c0-.06.05-.1.1-.1h1.16c.06,0,.1.05.1.1v4.34c0,.06-.05.1-.1.1h-1.16ZM249.16,2842.47c-.4,0-.73-.33-.73-.73s.33-.73.73-.73.73.33.73.73-.33.73-.73.73Z"/>
      <path class="cls-6" d="M252.95,2847.62c-1.06,0-1.69-.67-1.69-1.79v-1.64c0-.07-.06-.13-.13-.13h-.43c-.06,0-.1-.05-.1-.1v-.92c0-.06.05-.1.1-.1h.43c.07,0,.13-.06.13-.13v-1.04c0-.06.05-.1.1-.1h1.15c.06,0,.1.05.1.1v1.04c0,.07.06.13.13.13h.79c.06,0,.1.05.1.1v.92c0,.06-.05.1-.1.1h-.79c-.07,0-.13.06-.13.13v1.59c0,.38.21.6.59.6.09,0,.21-.01.3-.04,0,0,.02,0,.02,0,.06,0,.1.05.1.1v.97s-.03.08-.07.1c-.16.06-.4.1-.62.1Z"/>
      <path class="cls-6" d="M256.72,2847.62c-1.06,0-1.69-.67-1.69-1.79v-1.64c0-.07-.06-.13-.13-.13h-.43c-.06,0-.1-.05-.1-.1v-.92c0-.06.05-.1.1-.1h.43c.07,0,.13-.06.13-.13v-1.04c0-.06.05-.1.1-.1h1.15c.06,0,.1.05.1.1v1.04c0,.07.06.13.13.13h.79c.06,0,.1.05.1.1v.92c0,.06-.05.1-.1.1h-.79c-.07,0-.13.06-.13.13v1.59c0,.38.21.6.59.6.09,0,.21-.01.3-.04,0,0,.02,0,.02,0,.06,0,.1.05.1.1v.97s-.03.08-.07.1c-.16.06-.4.1-.62.1Z"/>
      <path class="cls-6" d="M259.28,2849.27c-.31,0-.64-.07-.82-.19-.03-.02-.05-.05-.05-.09v-.9c0-.06.05-.1.1-.1.01,0,.03,0,.04,0,.17.07.38.11.58.11.28,0,.54-.11.72-.31.03-.04.04-.09.02-.13l-1.77-4.61s0-.07.01-.09.05-.04.08-.04h1.17s.08.03.1.07l.92,2.77c.02.05.07.09.12.09s.1-.03.12-.09l.94-2.77s.05-.07.1-.07h1.14s.06.02.08.04.02.06.01.09l-1.82,4.8c-.17.46-.43.82-.76,1.06-.3.22-.66.33-1.05.33Z"/>
      <path class="cls-6" d="M247.62,2845.5c0,1.12-.61,2.05-2.35,2.04-.78,0-2.68,0-2.92,0-.05,0-.1-.04-.1-.09,0,0,0,0,0,0v-6.2c0-.08.06-.15.15-.15h2.69c1.27,0,1.98.65,1.98,1.6,0,.44-.24.88-.55,1.13-.04.03-.03.11.02.12.58.21,1.09.74,1.09,1.55ZM244.89,2842.3h-1.12c-.06,0-.11.05-.11.11v1.05c0,.06.05.11.11.11h1.14c.51,0,.72-.3.72-.64s-.21-.63-.74-.63ZM246.12,2845.51c0-.41-.27-.8-.9-.8h-1.45c-.06,0-.11.05-.11.11v1.41s.03.08.07.09c0,0,1.18,0,1.47,0,.61,0,.91-.34.91-.82Z"/>
    </g>
    <g id="solid-6" data-name="solid">
      <g id="symbol-15" data-name="symbol">
        <g class="cls-18">
          <circle id="bg_gradient_blue-15" data-name="bg_gradient blue" class="cls-6" cx="236.59" cy="2844.51" r="6.77"/>
        </g>
      </g>
    </g>
  </g>
</svg>