<?xml version="1.0" encoding="UTF-8"?>
<svg id="_图层_6" data-name="图层 6" xmlns="http://www.w3.org/2000/svg" xmlns:xlink="http://www.w3.org/1999/xlink" viewBox="0 0 3240 3240">
  <defs>
    <style>
      .cls-1 {
        clip-path: url(#clippath);
      }

      .cls-2 {
        fill: none;
      }

      .cls-2, .cls-3 {
        stroke-width: 0px;
      }
    </style>
    <clipPath id="clippath">
      <path id="line" class="cls-2" d="M1395.92,685.69h0c0,107.45-60.38,205.78-156.21,254.38l-277.84,140.92c-23.12,11.72-42.72,29.36-56.81,51.12l-.02.03c-9.36,14.44-16.09,30.42-19.91,47.2h0c-1.13,4.97-8.45,4.15-8.45-.95v-282.37c0-107.45,60.38-205.78,156.21-254.38l159.34-80.82c19.66-9.97,41.4-15.17,63.44-15.17h.22c77.34,0,140.03,62.69,140.03,140.03ZM2203.62,936.63l-143.93-108.3c-96.59-72.68-226.11-84.09-333.91-29.41l-700.72,355.4c-94.14,47.75-105.59,177.68-21.24,241.15l143.93,108.3c96.59,72.68,226.11,84.09,333.91,29.41l700.72-355.4c94.14-47.75,105.59-177.68,21.24-241.15ZM2354.36,1128.57h0c-3.3,22.53-11.51,44.06-24.04,63.07h0c-14.88,22.56-35.38,40.86-59.48,53.08l-402.93,204.36c-95.83,48.6-156.21,146.93-156.21,254.38v183.16c0,68.27,55.35,123.62,123.62,123.62h0c19.43,0,38.59-4.58,55.92-13.37l315.97-160.26c95.83-48.6,156.21-146.93,156.21-254.38v-453c0-5.64-8.23-6.24-9.05-.66Z"/>
    </clipPath>
  </defs>
  <g id="Bitty_blue" data-name="Bitty blue">
    <path class="cls-3" d="M1341.99,2626.64c-4.37,0-7.93-3.56-7.93-7.93v-336.11c0-4.37,3.56-7.93,7.93-7.93h90.02c4.37,0,7.93,3.56,7.93,7.93v336.11c0,4.37-3.56,7.93-7.93,7.93h-90.02ZM1386.99,2238.42c-31,0-56.23-25.22-56.23-56.23s25.22-56.23,56.23-56.23,56.23,25.22,56.23,56.23-25.22,56.23-56.23,56.23Z"/>
    <path class="cls-3" d="M1680.44,2636.98c-81.89,0-130.77-51.79-130.77-138.52v-126.72c0-5.47-4.45-9.92-9.92-9.92h-33.18c-4.37,0-7.93-3.56-7.93-7.93v-71.29c0-4.37,3.56-7.93,7.93-7.93h33.18c5.47,0,9.92-4.45,9.92-9.92v-80.97c0-4.37,3.56-7.93,7.93-7.93h89.37c4.37,0,7.93,3.56,7.93,7.93v80.97c0,5.47,4.45,9.92,9.92,9.92h60.95c4.37,0,7.93,3.56,7.93,7.93v71.29c0,4.37-3.56,7.93-7.93,7.93h-60.95c-5.47,0-9.92,4.45-9.92,9.92v123.49c0,29.78,16.61,46.85,45.56,46.85,7.16,0,15.93-1.05,23.46-2.82.61-.14,1.23-.22,1.85-.22,4.37,0,7.93,3.56,7.93,7.93v74.88c0,3.27-2.03,6.24-5.04,7.39-12.52,4.77-30.99,7.74-48.22,7.74Z"/>
    <path class="cls-3" d="M1972.63,2636.98c-81.89,0-130.77-51.79-130.77-138.52v-126.72c0-5.47-4.45-9.92-9.92-9.92h-33.18c-4.37,0-7.93-3.56-7.93-7.93v-71.29c0-4.37,3.56-7.93,7.93-7.93h33.18c5.47,0,9.92-4.45,9.92-9.92v-80.97c0-4.37,3.56-7.93,7.93-7.93h89.37c4.37,0,7.93,3.56,7.93,7.93v80.97c0,5.47,4.45,9.92,9.92,9.92h60.95c4.37,0,7.93,3.56,7.93,7.93v71.29c0,4.37-3.56,7.93-7.93,7.93h-60.95c-5.47,0-9.92,4.45-9.92,9.92v123.49c0,29.78,16.61,46.85,45.56,46.85,7.16,0,15.93-1.05,23.46-2.82.61-.14,1.23-.22,1.85-.22,4.37,0,7.93,3.56,7.93,7.93v74.88c0,3.27-2.03,6.24-5.04,7.39-12.51,4.77-30.99,7.74-48.22,7.74Z"/>
    <path class="cls-3" d="M2171.25,2765.51c-24.27,0-49.68-5.77-63.24-14.35-2.25-1.43-3.59-3.91-3.59-6.64v-69.46c0-4.38,3.55-7.94,7.91-7.94,1.05,0,2.09.21,3.09.64,13.01,5.51,29.36,8.67,44.85,8.67,21.92,0,41.77-8.46,55.87-23.82,2.51-2.74,3.27-6.76,1.92-10.26l-137.46-356.9c-.95-2.48-.64-5.15.86-7.34s3.89-3.44,6.54-3.44h90.37c3.42,0,6.44,2.18,7.53,5.42l71.6,214.79c1.37,4.12,5.07,6.78,9.41,6.78s8.01-2.65,9.39-6.74l72.75-214.87c1.09-3.22,4.11-5.39,7.51-5.39h88.55c2.64,0,5.02,1.25,6.53,3.42,1.5,2.18,1.83,4.84.89,7.31l-140.76,372.24c-13.51,35.92-33.44,63.56-59.24,82.14-23.37,16.83-51.47,25.73-81.29,25.73Z"/>
    <path class="cls-3" d="M1267.22,2473.08c0,87.14-47.27,158.91-181.92,158.05-60.67-.39-207.46-.09-226.57-.38-4.05-.06-7.53-3.14-7.8-7.17-.01-.18-.02-.35-.02-.53v-480.36c0-6.21,5.04-11.25,11.25-11.25h208.8c98.46,0,153.31,50.22,153.31,124.23,0,34.17-18.38,68.34-42.98,87.53-3.47,2.7-2.56,8.2,1.57,9.68,45.19,16.26,84.36,57.72,84.36,120.19ZM1056.43,2225.28h-86.72c-4.66,0-8.44,3.78-8.44,8.44v81.59c0,4.66,3.78,8.44,8.44,8.44h88.04c39.65,0,56.17-23.13,56.17-49.56s-16.52-48.9-57.49-48.9ZM1151.58,2473.45c0-31.44-21.15-61.82-69.38-61.82h-112.49c-4.66,0-8.44,3.78-8.44,8.44v109.38c0,3.46,2.38,6.48,5.75,7.26,0,0,91.54.06,114.14.06,47,0,70.42-26.63,70.42-63.31Z"/>
  </g>
  <g id="black">
    <g id="symbol">
      <g class="cls-1">
        <circle id="bg_gradient_blue" data-name="bg_gradient blue" class="cls-3" cx="1657.93" cy="1252.74" r="1283.11"/>
      </g>
    </g>
  </g>
</svg>