<svg width="183" height="263" viewBox="0 0 183 263" fill="none" xmlns="http://www.w3.org/2000/svg">
<path d="M155.305 254C153.574 254 151.958 253.887 150.455 253.662C148.953 253.437 147.769 253.167 146.904 252.852L147.997 243.06C148.816 243.24 149.704 243.375 150.66 243.466C151.616 243.601 152.55 243.668 153.461 243.668C156.511 243.668 158.697 243.038 160.018 241.777C161.384 240.517 162.067 238.581 162.067 235.97V232.121C160.974 234.867 159.426 236.87 157.422 238.131C155.419 239.346 153.051 239.954 150.319 239.954C146.084 239.954 142.806 238.446 140.483 235.43C138.161 232.368 137 228.069 137 222.532V207H151.412V223.274C151.412 227.281 152.846 229.284 155.715 229.284C157.49 229.284 158.902 228.564 159.949 227.124C161.042 225.683 161.588 223.792 161.588 221.451V207H176V232.931C176 240.134 174.201 245.446 170.604 248.868C167.007 252.289 161.907 254 155.305 254Z" fill="#262E3B"/>
<path d="M124.184 242C120.923 242 118.26 241.448 116.194 240.345C114.173 239.241 112.704 237.747 111.786 235.862C110.867 233.977 110.408 231.862 110.408 229.517V215.448H106V206.897H111.441L117.847 196H124.941V206.897H132.931V215.448H124.941V227.517C124.941 228.575 125.286 229.402 125.974 230C126.663 230.552 127.559 230.828 128.661 230.828C129.763 230.828 130.865 230.552 131.967 230L133 239.586C131.898 240.368 130.497 240.966 128.798 241.379C127.099 241.793 125.561 242 124.184 242Z" fill="#262E3B"/>
<path d="M96.1837 242C92.9235 242 90.2602 241.448 88.1939 240.345C86.1735 239.241 84.7041 237.747 83.7857 235.862C82.8673 233.977 82.4082 231.862 82.4082 229.517V215.448H78V206.897H83.4413L89.8469 196H96.9413V206.897H104.931V215.448H96.9413V227.517C96.9413 228.575 97.2857 229.402 97.9745 230C98.6633 230.552 99.5587 230.828 100.661 230.828C101.763 230.828 102.865 230.552 103.967 230L105 239.586C103.898 240.368 102.497 240.966 100.798 241.379C99.0995 241.793 97.5612 242 96.1837 242Z" fill="#262E3B"/>
<path d="M69.9333 241C66.9556 241 64.5333 240.458 62.6667 239.373C60.8444 238.288 59.5111 236.819 58.6667 234.966C57.8222 233.113 57.4 231.034 57.4 228.729V206.492H71.4667V226.763C71.4667 227.802 71.7556 228.616 72.3333 229.203C72.9556 229.746 73.6889 230.017 74.5333 230.017C75.4222 230.017 76.3333 229.746 77.2667 229.203L78 238.627C77.0222 239.395 75.7556 239.983 74.2 240.39C72.6444 240.797 71.2222 241 69.9333 241ZM64.4667 202.763C62.4222 202.763 60.6667 202.107 59.2 200.797C57.7333 199.441 57 197.791 57 195.847C57 194.492 57.3556 193.316 58.0667 192.322C58.7778 191.282 59.7111 190.469 60.8667 189.881C62.0222 189.294 63.2222 189 64.4667 189C65.8444 189 67.0889 189.316 68.2 189.949C69.3556 190.582 70.2667 191.418 70.9333 192.458C71.6444 193.497 72 194.627 72 195.847C72 197.203 71.6222 198.401 70.8667 199.441C70.1556 200.48 69.2222 201.294 68.0667 201.881C66.9556 202.469 65.7556 202.763 64.4667 202.763Z" fill="#262E3B"/>
<path d="M25.7179 241H8V194H27.149C34.645 194 40.1421 195.047 43.6403 197.142C47.1384 199.192 48.8875 202.038 48.8875 205.682C48.8875 210.418 46.4115 213.674 41.4596 215.451C47.8199 216.68 51 220.437 51 226.722C51 231.55 48.7966 235.148 44.3899 237.516C40.0285 239.839 33.8045 241 25.7179 241ZM23.1965 212.581H28.58C30.3973 212.581 31.8737 212.172 33.0095 211.352C34.1453 210.532 34.7132 209.439 34.7132 208.073C34.7132 204.93 32.5779 203.359 28.3074 203.359H23.1965V212.581ZM28.9889 231.368C31.2604 231.368 33.0095 230.912 34.2361 230.001C35.4628 229.091 36.0761 227.815 36.0761 226.176C36.0761 224.4 35.4628 223.033 34.2361 222.077C33.0095 221.075 31.2604 220.574 28.9889 220.574H23.1284V231.368H28.9889Z" fill="#262E3B"/>
<rect x="33" y="50" width="119" height="76" fill="white"/>
<rect x="29" y="56" width="126" height="72" fill="white"/>
<path d="M91 5C44.6089 5 7 42.6089 7 89C7 135.391 44.6089 173 91 173C137.391 173 175 135.391 175 89C175 42.6089 137.395 5 91 5ZM146.125 115.188C146.125 117.397 144.334 119.188 142.125 119.188H96.25H85.75H39.875C37.6659 119.188 35.875 117.397 35.875 115.187V87.6875C35.875 71.2445 49.6195 58.8125 66.0625 58.8125C76.5678 58.8125 85.6988 63.7218 91 71.9375C96.3012 63.7218 105.432 58.8125 115.938 58.8125C132.38 58.8125 146.125 71.2445 146.125 87.6875V115.188Z" fill="#0E85FF"/>
<path d="M80 82C84.4193 82 88 85.3407 88 90V102C88 106.659 84.4193 110 80 110C75.5807 110 72 106.659 72 102V90C72 85.3407 75.5807 82 80 82ZM81.3333 99.3333C81.3333 100.876 82.5371 102 84 102C85.4629 102 86.6667 100.876 86.6667 99.3333V92.6667C86.6667 91.1243 85.4629 90 84 90C82.5371 90 81.3333 91.1243 81.3333 92.6667V99.3333Z" fill="black"/>
<path d="M122 82C126.419 82 130 85.3407 130 90V102C130 106.659 126.419 110 122 110C117.581 110 114 106.659 114 102V90C114 85.3407 117.581 82 122 82ZM123.333 99.3333C123.333 100.876 124.537 102 126 102C127.463 102 128.667 100.876 128.667 99.3333V92.6667C128.667 91.1243 127.463 90 126 90C124.537 90 123.333 91.1243 123.333 92.6667V99.3333Z" fill="black"/>
</svg>
